<svg xmlns="http://www.w3.org/2000/svg" width="19.571" height="26.07" viewBox="0 0 19.571 26.07">
  <g id="_3221845" data-name="3221845" transform="translate(-63.818 0)">
    <path id="Path_394" data-name="Path 394" d="M83.389,8.37H71.332l5.4-5.4a.764.764,0,0,0,0-1.08L75.363.522a1.782,1.782,0,0,0-2.52,0L71.436,1.929l-.72-.72a2.039,2.039,0,0,0-2.88,0L65.027,4.017a2.039,2.039,0,0,0,0,2.88l.72.72L64.34,9.025a1.782,1.782,0,0,0,0,2.52l1.368,1.368a.764.764,0,0,0,1.08,0l1.936-1.936V22.76a3.31,3.31,0,0,0,3.31,3.31H80.08a3.31,3.31,0,0,0,3.31-3.31ZM66.827,6.538l-.72-.72a.51.51,0,0,1,0-.72l2.808-2.808a.51.51,0,0,1,.72,0l.72.72Zm6.6,15.255a.764.764,0,1,1-1.528,0V12.648a.764.764,0,1,1,1.528,0Zm3.4,0a.764.764,0,1,1-1.528,0V12.648a.764.764,0,1,1,1.528,0Zm3.4,0a.764.764,0,1,1-1.528,0V12.648a.764.764,0,1,1,1.528,0Z" transform="translate(0 0)" fill="#fff"/>
    <path id="Path_395" data-name="Path 395" d="M305.114,85.919a1.275,1.275,0,0,0-.847,1.061H311.6V85.711a1.274,1.274,0,0,0-1.681-1.206l-4.784,1.409Z" transform="translate(-228.206 -80.137)" fill="#fff"/>
  </g>
</svg>
