<svg xmlns="http://www.w3.org/2000/svg" width="40" height="40" viewBox="0 0 40 40">
  <g id="Group_11882" data-name="Group 11882" transform="translate(-1641 -2353)">
    <rect id="Rectangle_3154" data-name="Rectangle 3154" width="40" height="40" rx="4" transform="translate(1641 2353)" fill="#00ac34"/>
    <path id="_107784" data-name="107784" d="M24.486,13.544a4.1,4.1,0,0,0-3.157,1.486l-4.9-2.783a4.095,4.095,0,0,0,0-2.741l4.9-2.783a4.1,4.1,0,1,0-.71-1.248l-4.9,2.783a4.1,4.1,0,1,0,0,5.237l4.9,2.783a4.1,4.1,0,1,0,3.868-2.733Zm0-12.108A2.668,2.668,0,1,1,21.818,4.1,2.67,2.67,0,0,1,24.486,1.436ZM12.56,13.544a2.668,2.668,0,1,1,2.667-2.668A2.671,2.671,0,0,1,12.56,13.544Zm11.925,6.772a2.668,2.668,0,1,1,2.667-2.668A2.671,2.671,0,0,1,24.486,20.316Z" transform="translate(1641.178 2362)" fill="#f8fcff"/>
  </g>
</svg>
