<svg xmlns="http://www.w3.org/2000/svg" width="40" height="40" viewBox="0 0 40 40">
  <g id="Group_11848" data-name="Group 11848" transform="translate(-1585 -2713)">
    <rect id="Rectangle_3165" data-name="Rectangle 3165" width="40" height="40" rx="4" transform="translate(1585 2713)" fill="#6b7fff"/>
    <g id="Group_11840" data-name="Group 11840" transform="translate(22.992 -20.998)">
      <path id="Path_9516" data-name="Path 9516" d="M460.918-1449.481q0-1.849,0-3.7a1.088,1.088,0,0,1,1.217-1.238q3.746,0,7.492,0a1.048,1.048,0,0,1,1.163,1.185q0,3.746,0,7.492a1.058,1.058,0,0,1-1.168,1.188q-3.793.012-7.586,0c-.789,0-1.119-.477-1.117-1.23Q460.921-1447.632,460.918-1449.481Zm5.005-2.944v-.007c-.789,0-1.578.017-2.367-.006-.5-.015-.665.194-.659.674.018,1.483.024,2.966,0,4.449-.008.552.166.8.756.785,1.483-.026,2.966-.011,4.45,0,.449,0,.712-.1.7-.627q-.034-2.319-.011-4.639c0-.516-.247-.647-.7-.638C467.375-1452.414,466.649-1452.426,465.923-1452.426Z" transform="translate(1116.156 4203.484)" fill="#f8fcff"/>
      <path id="Path_9517" data-name="Path 9517" d="M514.047-1482.69c0,.822.011,1.644,0,2.466-.013.656-.321,1.122-1.018,1.117s-.993-.476-1.007-1.131-.005-1.328-.006-1.992c0-2.048,0-2.048-2-2.049-.632,0-1.265,0-1.9,0-.723,0-1.289-.249-1.267-1.062.02-.76.578-.976,1.255-.974,1.549,0,3.1-.012,4.648.006.963.012,1.28.353,1.3,1.343C514.06-1484.208,514.049-1483.449,514.047-1482.69Z" transform="translate(1078.959 4229.319)" fill="#f8fcff"/>
      <path id="Path_9518" data-name="Path 9518" d="M514.031-1404.934c0,.822.01,1.645,0,2.467a1.071,1.071,0,0,1-1.186,1.177q-2.468.014-4.935,0a.959.959,0,0,1-1.08-.955.962.962,0,0,1,1.069-1.062c1.138-.028,2.278-.036,3.416,0,.545.016.712-.176.7-.707-.033-1.074-.008-2.151-.009-3.226,0-.681.234-1.23.99-1.245.815-.016,1.055.551,1.048,1.276C514.026-1406.453,514.032-1405.693,514.031-1404.934Z" transform="translate(1078.976 4166.284)" fill="#f8fcff"/>
      <path id="Path_9519" data-name="Path 9519" d="M432.647-1401.3h-2.371a1.09,1.09,0,0,1-1.245-1.212q-.008-2.419,0-4.837c0-.651.276-1.14.977-1.156.754-.017,1.046.488,1.053,1.18.01,1.012.044,2.026-.006,3.034-.035.712.142,1.022.927.968,1.007-.069,2.022-.014,3.034-.011.688,0,1.217.264,1.218,1.016s-.527,1.016-1.216,1.017Q433.833-1401.294,432.647-1401.3Z" transform="translate(1141.984 4166.294)" fill="#f8fcff"/>
      <path id="Path_9520" data-name="Path 9520" d="M432.634-1486.317c.823,0,1.645-.006,2.468,0,.66.008,1.124.308,1.128,1.005s-.463,1.01-1.118,1.02c-1.107.017-2.216.038-3.321-.005-.6-.023-.765.184-.743.758.04,1.042.009,2.088.013,3.132,0,.717-.227,1.3-1.042,1.291s-1-.616-1-1.326c.009-1.519-.01-3.037.008-4.556.011-.966.356-1.3,1.33-1.318C431.115-1486.331,431.874-1486.318,432.634-1486.317Z" transform="translate(1141.991 4229.322)" fill="#f8fcff"/>
    </g>
  </g>
</svg>
