<svg xmlns="http://www.w3.org/2000/svg" width="40" height="40" viewBox="0 0 40 40">
  <g id="Group_11884" data-name="Group 11884" transform="translate(-1473 -2353)">
    <rect id="Rectangle_3131" data-name="Rectangle 3131" width="40" height="40" rx="4" transform="translate(1473 2353)" fill="#459ff9"/>
    <g id="_1827933" data-name="1827933" transform="translate(1483 2362.498)">
      <path id="Path_389" data-name="Path 389" d="M16.282,92.672a.857.857,0,0,0-.857.857v6.856a.858.858,0,0,1-.857.857h-12a.858.858,0,0,1-.857-.857v-12a.858.858,0,0,1,.857-.857H9.427a.857.857,0,0,0,0-1.714H2.571A2.574,2.574,0,0,0,0,88.387v12a2.574,2.574,0,0,0,2.571,2.571h12a2.574,2.574,0,0,0,2.571-2.571V93.529a.856.856,0,0,0-.857-.857Zm0,0" transform="translate(0 -81.888)" fill="#fff"/>
      <path id="Path_390" data-name="Path 390" d="M182.54,75.042a.434.434,0,0,0-.117.218l-.606,3.03a.428.428,0,0,0,.421.512.408.408,0,0,0,.084-.008l3.029-.606a.427.427,0,0,0,.219-.118l6.78-6.78-3.029-3.029Zm0,0" transform="translate(-174.505 -65.039)" fill="#fff"/>
      <path id="Path_391" data-name="Path 391" d="M395.661,1.128a2.144,2.144,0,0,0-3.029,0l-1.186,1.186,3.029,3.029,1.186-1.186a2.142,2.142,0,0,0,0-3.029Zm0,0" transform="translate(-375.721)" fill="#fff"/>
    </g>
  </g>
</svg>
