<svg width="623" height="538" viewBox="0 0 623 538" fill="none" xmlns="http://www.w3.org/2000/svg">
<g clip-path="url(#clip0)">
<path d="M610.066 318.541C597.949 351.591 578.83 384.77 553.88 414.937C549.48 420.269 544.906 425.491 540.137 430.628C528.692 442.959 516.228 454.662 502.853 465.476C497.152 470.092 491.278 474.535 485.23 478.804C476.473 485.002 467.391 490.832 457.983 496.206C452.824 499.175 447.556 501.993 442.202 504.68C438.062 506.761 433.878 508.754 429.63 510.661C405.114 521.692 378.82 529.798 351.052 534.154C347.584 534.695 344.094 535.172 340.582 535.606C337.808 535.952 335.011 536.234 332.193 536.494C329.744 536.733 327.295 536.928 324.802 537.079C319.578 537.426 314.332 537.664 309.021 537.729C296.254 537.925 283.226 537.339 269.982 535.866C262.351 535.021 254.656 533.894 246.896 532.463C237.792 530.773 228.926 528.801 220.299 526.547C214.468 525.03 208.745 523.383 203.153 521.627C196.454 519.525 189.93 517.271 183.557 514.844C167.69 508.798 152.841 501.798 139.011 493.974C123.513 485.24 109.314 475.466 96.4168 464.934C92.0598 461.38 87.8763 457.761 83.8444 454.033C78.3169 448.962 73.0494 443.717 68.0638 438.386C15.9966 382.43 -5.28985 313.058 6.0687 257.21C29.1977 143.368 122.862 109.929 203.153 118.944C229.533 121.913 254.461 129.455 274.967 140.226C287.778 146.944 300.437 151.69 312.966 154.833C318.689 156.285 324.39 157.412 330.069 158.213C334.231 158.82 338.371 159.275 342.49 159.557C347.779 159.947 353.068 160.121 358.314 160.077C360.351 160.056 362.389 160.012 364.405 159.947C413.633 158.148 459.825 139.706 501.488 132.857C567.602 122.043 654.937 196.161 610.066 318.541Z" fill="#0E64F3"/>
<path d="M610.065 318.54C597.948 351.59 578.829 384.769 553.879 414.936C549.479 420.268 544.905 425.491 540.136 430.627C528.691 442.958 516.227 454.661 502.852 465.475C497.151 470.091 491.277 474.534 485.229 478.803C476.472 485.001 467.389 490.831 457.982 496.206C452.823 499.175 447.555 501.992 442.201 504.679C438.061 506.76 433.877 508.754 429.629 510.661C405.112 521.692 378.819 529.797 351.051 534.153C347.583 534.695 344.093 535.171 340.581 535.605C337.807 535.952 335.01 536.233 332.192 536.493C329.743 536.732 327.293 536.927 324.801 537.079C319.576 537.425 314.331 537.664 309.02 537.729C296.252 537.924 283.225 537.339 269.98 535.865C262.35 535.02 254.655 533.893 246.895 532.462C237.791 530.772 228.925 528.8 220.298 526.546C214.467 525.029 208.744 523.382 203.151 521.627V118.943C229.532 121.912 254.46 129.454 274.966 140.225C287.777 146.943 300.436 151.689 312.965 154.832C318.688 156.284 324.389 157.411 330.068 158.213C334.23 158.819 338.37 159.275 342.489 159.556C347.778 159.946 353.067 160.12 358.313 160.076C360.35 160.055 362.388 160.011 364.404 159.946C413.631 158.148 459.824 139.705 501.487 132.857C567.6 122.042 654.935 196.16 610.065 318.54Z" fill="#145FED"/>
<path d="M351.053 445.192V534.176C347.585 534.718 344.095 535.195 340.583 535.628C337.809 535.975 335.012 536.256 332.194 536.516V445.17H351.053V445.192Z" fill="#4A9AE2"/>
<path d="M351.031 445.191H332.173V471.263H351.031V445.191Z" fill="#4788D6"/>
<path d="M215.293 449.439H432.991L436.85 425.795H215.293V449.439Z" fill="#5AA3E7"/>
<path d="M341.493 145.688H453.735C471.466 145.688 484.884 161.746 481.698 179.192L436.849 425.795H266.817L313.509 169.028C315.98 155.505 327.75 145.688 341.493 145.688Z" fill="#5AA3E7"/>
<path d="M326.234 145.688H438.476C456.207 145.688 469.625 161.746 466.439 179.192L421.59 425.795H251.559L298.25 169.028C300.721 155.505 312.492 145.688 326.234 145.688Z" fill="#6AACEC"/>
<path d="M340.628 384.575C340.628 385.182 340.585 385.811 340.563 386.461C340.043 397.232 336.553 410.365 324.782 420.486C322.593 422.393 320.1 424.17 317.282 425.817C314.659 427.356 311.885 428.764 309.002 430.043C289.84 438.625 266.125 441.746 249.261 442.873C236.472 443.718 227.606 443.393 227.606 443.393L183.559 514.91C167.692 508.863 152.843 501.863 139.014 494.04C158.739 459.43 184.253 414.743 192.858 399.746C196.392 393.591 203.87 388.606 213.213 384.597C242.823 371.854 291.097 368.82 291.097 368.82L302.846 368.257L324.826 367.216L338.417 366.588C338.417 366.588 338.612 367.173 338.872 368.257C339.089 369.102 339.349 370.272 339.587 371.659C340.151 374.867 340.715 379.396 340.628 384.575Z" fill="#202070"/>
<path d="M415.217 384.575C415.001 397.622 410.622 414.829 391.893 425.795C376.958 434.529 357.536 438.972 340.563 441.204C334.949 441.941 329.616 442.439 324.782 442.786C318.41 443.219 312.969 443.371 309.002 443.414C304.71 443.458 302.174 443.371 302.174 443.371L269.941 535.909C262.31 535.064 254.615 533.937 246.855 532.507C237.751 530.817 228.885 528.844 220.258 526.591C226.739 506.891 238.445 471.848 249.239 442.851C256.263 423.931 262.896 407.591 267.404 399.724C270.938 393.569 278.438 388.585 287.759 384.575C298.684 379.873 312.123 376.514 324.761 374.108C329.898 373.133 334.884 372.331 339.523 371.659C354.436 369.514 365.643 368.798 365.643 368.798L375.094 368.365L377.37 368.257L412.941 366.588C412.941 366.588 412.963 366.675 413.028 366.848C413.115 367.108 413.245 367.606 413.396 368.278C414.112 371.052 415.347 377.142 415.217 384.575Z" fill="#34318B"/>
<path d="M374.507 318.54C374.507 320.361 374.507 322.181 374.485 324.002C374.42 346.974 374.117 368.234 374.117 368.234L324.802 359.392C324.802 359.392 323.848 339.865 323.718 324.002C323.697 322.116 323.697 320.296 323.718 318.54C323.762 311.237 324.044 305.516 324.824 304.194C324.932 303.999 325.041 303.63 325.149 303.067C325.344 301.94 325.561 300.054 325.756 297.605C326.059 293.726 326.341 288.395 326.58 282.154C326.666 280.398 326.731 278.578 326.796 276.692C326.97 271.859 327.143 266.637 327.295 261.24C327.338 259.441 327.403 257.621 327.447 255.779C327.599 250.664 327.729 245.463 327.837 240.327C327.88 238.507 327.924 236.664 327.967 234.866C328.075 229.513 328.184 224.29 328.292 219.414C328.336 217.55 328.357 215.73 328.401 213.952C328.682 199.519 328.856 189.16 328.921 188.922C329.116 188.12 339.434 172.559 339.434 172.559L363.907 166.6L374.16 178.389C374.16 178.389 373.987 194.188 373.856 213.974C373.856 215.751 373.835 217.572 373.835 219.435C373.813 224.463 373.791 229.686 373.791 234.887C373.791 236.708 373.791 238.528 373.791 240.349C373.791 245.615 373.791 250.838 373.813 255.801C373.813 257.664 373.835 259.485 373.856 261.262C373.9 266.983 373.965 272.25 374.052 276.714C374.095 278.448 374.138 280.073 374.16 281.547C374.16 281.742 374.182 281.958 374.182 282.175C374.312 286.661 374.42 291.949 374.463 297.627C374.485 299.404 374.507 301.225 374.507 303.088C374.485 308.095 374.507 313.318 374.507 318.54Z" fill="white"/>
<path d="M373.813 213.975C373.813 215.752 373.791 217.572 373.791 219.436H328.271C328.314 217.572 328.336 215.752 328.379 213.975H373.813Z" fill="#EFEFF4"/>
<path d="M373.749 234.887C373.749 236.707 373.749 238.528 373.749 240.348H327.838C327.881 238.528 327.925 236.685 327.968 234.887H373.749Z" fill="#EFEFF4"/>
<path d="M373.792 261.262H327.274C327.318 259.463 327.383 257.643 327.426 255.801H373.771C373.771 257.665 373.771 259.485 373.792 261.262Z" fill="#EFEFF4"/>
<path d="M374.14 282.174H326.56C326.646 280.419 326.711 278.598 326.776 276.713H374.01C374.053 278.447 374.096 280.072 374.118 281.546C374.118 281.741 374.14 281.957 374.14 282.174Z" fill="#EFEFF4"/>
<path d="M374.465 303.088H325.107C325.303 301.961 325.519 300.076 325.714 297.627H374.422C374.422 299.404 374.443 301.224 374.465 303.088Z" fill="#EFEFF4"/>
<path d="M374.507 318.541C374.507 320.361 374.507 322.182 374.485 324.002H323.718C323.697 322.117 323.697 320.296 323.718 318.541H374.507Z" fill="#EFEFF4"/>
<path d="M300.07 279.598L284.42 336.291L218.002 339.455L211.348 315.139L254.679 304.564L264.347 257.232L284.723 260.375L300.07 279.598Z" fill="url(#paint0_linear)"/>
<path d="M423.888 362.947C422.262 368.603 370.932 371.03 367.399 366.263C365.795 364.095 362.456 339.65 360.744 306.102C358.685 265.814 358.967 212.415 367.377 168.529L394.364 180.254L403.013 193.192L419.834 213.802C419.834 213.802 419.119 250.73 418.36 275.241C418.317 276.758 418.274 278.21 418.209 279.619C417.428 303.783 425.514 357.29 423.888 362.947Z" fill="url(#paint1_linear)"/>
<path d="M423.887 362.946C422.261 368.602 370.931 371.029 367.398 366.261C365.794 364.094 362.456 339.649 360.743 306.101C368.352 303.023 379.298 294.506 381.423 270.732C384.739 233.587 401.148 213.605 401.148 213.605C401.148 213.605 408.128 237.249 401.148 266.051L418.381 275.24C418.338 276.757 418.295 278.209 418.23 279.618C417.427 303.782 425.513 357.289 423.887 362.946Z" fill="url(#paint2_linear)"/>
<path d="M328.879 366.263C328.879 366.263 284.009 367.39 284.811 365.353C285.613 363.337 293.698 347.17 298.099 332.802C302.499 318.433 304.233 263.495 304.233 263.495L300.071 279.576C300.071 279.576 300.028 279.576 299.941 279.533C299.074 279.316 294.283 278.059 288.366 276.499C277.311 273.573 262.376 269.477 261.985 268.718C261.378 267.505 267.036 242.452 272.282 225.071C277.549 207.691 287.239 184.654 338.2 172.539C328.533 206.109 328.879 366.263 328.879 366.263Z" fill="url(#paint3_linear)"/>
<path d="M430.607 279.596C430.607 279.596 414.024 344.568 399.328 344.872C384.609 345.175 318.842 335.748 308.373 334.838C297.903 333.928 288.062 328.921 288.062 328.921C288.062 328.921 272.91 339.822 270.937 337.113C269.008 334.469 276.508 324.219 276.92 323.655C276.4 324.089 264.803 334.339 262.288 331.825C259.709 329.246 274.275 307.423 282.902 307.12C291.551 306.816 310.8 316.048 310.8 316.048L381.423 309.98L383.981 299.123L390.679 270.711L430.607 279.596Z" fill="url(#paint4_linear)"/>
<path d="M363.863 166.6C363.863 166.6 397.224 166.297 421.783 184.176C446.343 202.055 448.12 227.931 430.627 279.597C421.545 277.689 390.656 273.138 390.699 270.711C390.721 268.284 402.404 210.854 402.404 210.854L363.863 166.6Z" fill="url(#paint5_linear)"/>
<path d="M396.597 307.792C396.402 309.049 381.424 309.981 381.424 309.981L383.982 299.123C390.333 303.046 396.706 307.163 396.597 307.792Z" fill="url(#paint6_linear)"/>
<path d="M306.551 210.551C306.551 210.551 305.034 227.238 304.232 263.495L299.94 279.554C299.072 279.337 294.282 278.08 288.364 276.52C293.068 268.783 297.924 258.164 298.379 246.613C299.268 223.597 306.551 210.551 306.551 210.551Z" fill="url(#paint7_linear)"/>
<path d="M304.428 109.907C291.097 110.709 277.939 90.0995 284.811 82.4276C291.682 74.7558 301.393 82.4276 301.393 82.4276C301.393 82.4276 293.113 75.5577 299.572 67.4741C306.032 59.3905 316.957 74.3441 336.964 71.31C356.972 68.276 375.332 78.8518 371.539 95.5607C386.3 95.5607 381.857 115.78 375.375 128.502C368.916 141.223 357.579 160.034 344.248 145.883C330.917 131.731 317.369 126.075 317.369 126.075L304.428 109.907Z" fill="url(#paint8_linear)"/>
<path d="M353.352 185.391C342.535 187.298 337.181 181.642 334.97 177.914C333.626 175.639 333.452 172.15 332.455 167.989C331.805 165.28 330.808 162.267 328.9 159.125L358.402 136.998C358.12 140.834 359.963 147.27 362.044 153.36C364.472 160.425 367.225 167.013 367.376 168.53C367.702 171.348 364.147 183.484 353.352 185.391Z" fill="url(#paint9_linear)"/>
<path d="M362.044 153.36C355.845 168.292 344.356 171.088 332.434 167.989C331.784 165.28 330.786 162.267 328.879 159.125L358.381 136.998C358.121 140.834 359.963 147.27 362.044 153.36Z" fill="url(#paint10_linear)"/>
<path d="M302.607 103.102C339.609 109.018 353.851 103.102 353.851 103.102C353.851 103.102 357.557 123.798 360.137 124.708C362.716 125.619 360.961 113.872 366.727 112.42C372.493 110.99 376.438 121.067 372.558 126.897C368.699 132.727 363.302 130.69 363.302 130.69C363.302 130.69 354.284 162.136 330.938 162.677C307.593 163.197 301.979 133.269 302.282 124.947C302.607 116.581 302 108.238 302.607 103.102Z" fill="url(#paint11_linear)"/>
<path d="M304.146 336.291H207.446C205.062 336.291 203.154 338.22 203.154 340.582C203.154 342.966 205.084 344.873 207.446 344.873H304.146C306.53 344.873 308.438 342.944 308.438 340.582C308.459 338.22 306.53 336.291 304.146 336.291Z" fill="#202070"/>
<path d="M215.38 236.318H84.4097C79.966 236.318 77.018 239.916 77.82 244.359L95.8766 344.872H242.931L224.874 244.359C224.072 239.916 219.824 236.318 215.38 236.318Z" fill="#202070"/>
<path d="M159.106 304.216L144.713 292.881L153.015 281.547L167.387 292.881L159.106 304.216Z" fill="white"/>
<path d="M256.933 340.58C256.933 341.209 256.434 341.707 255.806 341.707C255.177 341.707 254.679 341.209 254.679 340.58C254.679 339.952 255.177 339.453 255.806 339.453C256.434 339.453 256.933 339.952 256.933 340.58Z" fill="#4848AA"/>
<path d="M273.842 341.707C274.465 341.707 274.969 341.202 274.969 340.58C274.969 339.958 274.465 339.453 273.842 339.453C273.22 339.453 272.715 339.958 272.715 340.58C272.715 341.202 273.22 341.707 273.842 341.707Z" fill="#4848AA"/>
<path d="M279.067 340.581C279.067 341.014 278.72 341.361 278.286 341.361C277.853 341.361 277.506 341.014 277.506 340.581C277.506 340.148 277.853 339.801 278.286 339.801C278.72 339.801 279.067 340.148 279.067 340.581Z" fill="#4848AA"/>
<path d="M266.492 341.361H262.2C261.767 341.361 261.42 341.014 261.42 340.581C261.42 340.148 261.767 339.801 262.2 339.801H266.492C266.926 339.801 267.273 340.148 267.273 340.581C267.273 341.014 266.926 341.361 266.492 341.361Z" fill="#4848AA"/>
<path d="M469.994 359.393H190.496C186.486 359.393 183.234 356.142 183.234 352.133C183.234 348.124 186.486 344.873 190.496 344.873H469.994C474.004 344.873 477.256 348.124 477.256 352.133C477.256 356.142 474.004 359.393 469.994 359.393Z" fill="#89BEF5"/>
<path d="M336.184 359.393H56.6855C52.6753 359.393 49.4238 356.142 49.4238 352.133C49.4238 348.124 52.6753 344.873 56.6855 344.873H336.162C340.172 344.873 343.424 348.124 343.424 352.133C343.445 356.142 340.194 359.393 336.184 359.393Z" fill="#A9D0FF"/>
<path d="M324.803 359.393V537.123C319.579 537.47 314.333 537.708 309.023 537.773V384.554H83.846V454.055C78.3185 448.984 73.0511 443.739 68.0654 438.408V359.393H324.803Z" fill="#89BEF5"/>
<path d="M324.782 359.393H68.0654V368.235H324.782V359.393Z" fill="#6AACEC"/>
<path d="M457.984 359.393V496.228C452.825 499.197 447.558 502.014 442.204 504.702V384.553H340.562V535.627C335.359 536.256 330.092 536.754 324.781 537.123V359.393H457.984Z" fill="#6AACEC"/>
<path d="M457.984 359.393H324.803V368.235H457.984V359.393Z" fill="#4788D6"/>
<path d="M96.4201 384.576V464.978C92.0631 461.424 87.8795 457.805 83.8477 454.078V384.576H96.4201Z" fill="#6AACEC"/>
<path d="M442.204 384.576V504.724C438.064 506.805 433.88 508.799 429.632 510.706V384.576H442.204Z" fill="#4788D6"/>
<path d="M553.881 414.96C538.903 433.121 521.8 450.177 502.854 465.499L512.804 318.564H547.357L553.881 414.96Z" fill="#8FC9EF"/>
<path d="M514.085 309.982C509.879 265.295 523.817 218.527 540.747 196.877C551.043 228.128 515.407 249.951 524.836 317.61" fill="url(#paint12_linear)"/>
<path d="M514.344 302.787C520.305 258.295 508.232 211.029 492.191 188.707C480.659 219.524 515.407 242.735 503.311 309.982" fill="url(#paint13_linear)"/>
<path d="M517.681 315.249C518.895 270.388 536.279 236.168 555.68 216.707C562.139 248.976 524.14 266.357 525.354 334.666" fill="url(#paint14_linear)"/>
<path d="M517.681 332.456C516.467 287.595 499.083 253.375 479.682 233.914C473.223 266.183 511.222 283.564 510.008 351.874" fill="url(#paint15_linear)"/>
<path d="M540.137 430.651C528.692 442.982 516.228 454.685 502.854 465.499C497.153 470.115 491.278 474.558 485.23 478.827L497.023 304.564H531.575L540.137 430.651Z" fill="#F0F8FF"/>
<path d="M123.015 216.685H11.6187C5.20239 216.685 0 211.505 0 205.09V117.71C0 111.295 5.20239 106.094 11.6187 106.094H123.015C129.431 106.094 134.633 111.295 134.633 117.71V205.09C134.633 211.505 129.431 216.685 123.015 216.685Z" fill="#4848AA"/>
<path d="M252.12 145.082H154.185C151.085 145.082 148.57 142.568 148.57 139.469V66.7165C148.57 63.6174 151.085 61.1035 154.185 61.1035H252.12C255.219 61.1035 257.734 63.6174 257.734 66.7165V139.469C257.734 142.568 255.219 145.082 252.12 145.082Z" fill="url(#paint16_linear)"/>
<path d="M174.192 75.1466H162.465C161.663 75.1466 160.991 74.4964 160.991 73.6729C160.991 72.871 161.642 72.1992 162.465 72.1992H174.192C174.994 72.1992 175.666 72.8494 175.666 73.6729C175.666 74.4964 175.016 75.1466 174.192 75.1466Z" fill="white"/>
<path opacity="0.44" d="M179.763 82.3419H162.487C161.685 82.3419 161.013 81.6917 161.013 80.8682C161.013 80.0664 161.663 79.3945 162.487 79.3945H179.763C180.565 79.3945 181.237 80.0447 181.237 80.8682C181.215 81.6701 180.565 82.3419 179.763 82.3419Z" fill="white"/>
<path opacity="0.15" d="M161.013 116.108C172.848 116.108 172.024 123.844 181.237 123.844C190.428 123.844 188.607 108.913 200.442 108.913C212.278 108.913 208.636 116.368 216.505 116.368C224.395 116.368 222.574 107.959 230.746 107.959C238.918 107.959 235.298 118.73 246.505 118.73" stroke="black" stroke-width="0.9294" stroke-miterlimit="10" stroke-linecap="round" stroke-linejoin="round"/>
<path d="M161.013 111.425C172.848 111.425 172.024 123.865 181.237 123.865C190.428 123.865 188.607 99.9172 200.442 99.9172C212.278 99.9172 208.636 111.902 216.505 111.902C224.395 111.902 222.574 98.4219 230.746 98.4219C238.918 98.4219 235.298 115.694 246.505 115.694" stroke="white" stroke-width="1.1773" stroke-miterlimit="10" stroke-linecap="round" stroke-linejoin="round"/>
<path d="M126.744 86.8917C147.18 86.8917 163.746 70.3291 163.746 49.898C163.746 29.4669 147.18 12.9043 126.744 12.9043C106.309 12.9043 89.7422 29.4669 89.7422 49.898C89.7422 70.3291 106.309 86.8917 126.744 86.8917Z" fill="url(#paint17_linear)"/>
<path d="M126.746 75.0582C140.645 75.0582 151.912 63.7933 151.912 49.8973C151.912 36.0013 140.645 24.7363 126.746 24.7363C112.847 24.7363 101.579 36.0013 101.579 49.8973C101.579 63.7933 112.847 75.0582 126.746 75.0582Z" fill="url(#paint18_linear)"/>
<path d="M406.306 3.71609V39.0844C406.306 41.0349 404.724 42.6169 402.773 42.6169H350.944L340.973 52.5859C339.954 53.6045 338.198 52.8893 338.198 51.4373V3.71609C338.198 1.76563 339.781 0.183594 341.732 0.183594H402.751C404.724 0.183594 406.306 1.76563 406.306 3.71609Z" fill="#336DC1"/>
<path d="M466.937 108H443.288C438.15 108 433.988 103.839 433.988 98.7028V75.0589C433.988 69.9227 438.15 65.7617 443.288 65.7617H466.937C472.074 65.7617 476.236 69.9227 476.236 75.0589V98.7028C476.236 103.839 472.074 108 466.937 108Z" fill="url(#paint19_linear)"/>
</g>
<g clip-path="url(#clip1)">
<path d="M56.4284 180.677C57.6917 181.611 59.1128 182.23 60.5908 182.521L48.0912 195.014C45.4321 197.673 41.1055 197.673 38.4465 195.014C35.7874 192.355 35.7874 188.029 38.4465 185.369L52.1651 171.651C54.8241 168.992 59.1507 168.992 61.8098 171.651C63.2941 173.135 63.9509 175.144 63.7741 177.089C62.334 177.462 60.755 177.165 59.536 176.192C59.4728 175.63 59.2391 175.087 58.8096 174.651C57.8054 173.647 56.1695 173.647 55.1652 174.651L41.4466 188.37C40.4424 189.374 40.4424 191.01 41.4466 192.014C42.4509 193.018 44.0868 193.018 45.091 192.014L56.4284 180.677ZM57.4138 167.261L67.0585 157.616C69.187 155.488 72.6419 155.488 74.7768 157.616L76.0652 158.905C76.2042 159.044 76.3305 159.183 76.4442 159.328C76.8169 159.259 77.1706 159.082 77.4548 158.798L79.6717 156.581C79.4823 156.347 79.2801 156.12 79.0591 155.905L77.7706 154.616C73.9872 150.833 67.8353 150.833 64.052 154.616L54.4136 164.261C52.4556 166.219 51.5208 168.802 51.5903 171.373L51.7356 171.228C52.9862 169.977 54.5715 169.27 56.2074 169.099C56.4663 168.43 56.8706 167.804 57.4138 167.261ZM76.4253 172.232C78.1685 171.739 79.5012 173.773 80.8907 172.485C80.8907 172.485 82.6214 169.263 81.8634 162.101L81.3076 162.657C80.1707 163.794 78.7622 164.476 77.2906 164.722C77.7959 166.63 77.2969 170.002 76.4253 172.232ZM70.9366 178.182C62.3719 178.434 61.3866 178.516 58.7022 176.262L57.4138 174.973C57.2622 174.822 57.1295 174.67 57.0032 174.506C56.4916 174.499 55.98 174.695 55.5947 175.081L53.6178 177.057C53.8641 177.373 54.1231 177.683 54.4136 177.973L55.7021 179.262C58.2412 181.801 62.0435 182.843 70.7218 182.635C70.6207 181.157 72.6924 180.613 70.9366 178.182ZM87.9522 141.864C88.9564 140.86 90.5923 140.86 91.5966 141.864C92.6008 142.868 92.6008 144.504 91.5966 145.508L77.878 159.221C76.8737 160.225 75.2378 160.225 74.2336 159.221C73.722 158.709 73.4756 158.033 73.4819 157.364C72.2061 156.568 70.646 156.416 69.2628 156.915C69.1301 158.817 69.7807 160.768 71.2334 162.221C73.8925 164.88 78.219 164.88 80.8781 162.221L94.5967 148.502C97.2558 145.843 97.2558 141.517 94.5967 138.858C91.9376 136.199 87.6111 136.199 84.952 138.858L72.5093 151.3C74.0251 151.534 75.4905 152.102 76.7979 153.012L87.9522 141.864Z" fill="white"/>
</g>
<g clip-path="url(#clip2)">
<path d="M450.732 94.1536C451.287 94.5644 451.911 94.8364 452.56 94.964L447.068 100.453C445.9 101.622 443.999 101.622 442.83 100.453C441.662 99.2851 441.662 97.384 442.83 96.2157L448.858 90.1878C450.027 89.0194 451.928 89.0194 453.096 90.1878C453.748 90.84 454.037 91.7225 453.959 92.5773C453.326 92.741 452.633 92.6106 452.097 92.1832C452.069 91.9362 451.967 91.6975 451.778 91.506C451.337 91.0648 450.618 91.0648 450.177 91.506L444.149 97.5339C443.707 97.9752 443.707 98.694 444.149 99.1352C444.59 99.5765 445.309 99.5765 445.75 99.1352L450.732 94.1536ZM451.165 88.259L455.402 84.0212C456.338 83.0859 457.856 83.0859 458.794 84.0212L459.36 84.5873C459.421 84.6484 459.476 84.7094 459.526 84.7733C459.69 84.7427 459.846 84.665 459.97 84.5401L460.945 83.566C460.861 83.4633 460.772 83.3634 460.675 83.2691L460.109 82.7029C458.447 81.0405 455.744 81.0405 454.081 82.7029L449.846 86.9407C448.986 87.8011 448.575 88.9361 448.606 90.0657L448.67 90.0019C449.219 89.4523 449.916 89.1415 450.634 89.0666C450.748 88.7724 450.926 88.4977 451.165 88.259ZM459.518 90.4431C460.284 90.2266 460.87 91.1203 461.48 90.5541C461.48 90.5541 462.241 89.1387 461.908 85.9916L461.663 86.2358C461.164 86.7354 460.545 87.0351 459.898 87.1433C460.12 87.9815 459.901 89.4635 459.518 90.4431ZM457.106 93.0574C453.343 93.1684 452.91 93.2045 451.731 92.2137L451.165 91.6476C451.098 91.581 451.04 91.5144 450.984 91.4422C450.759 91.4394 450.535 91.5255 450.365 91.6948L449.497 92.5634C449.605 92.7022 449.719 92.8382 449.846 92.9658L450.412 93.532C451.528 94.6476 453.199 95.1056 457.012 95.014C456.968 94.3646 457.878 94.1259 457.106 93.0574ZM464.583 77.0997C465.024 76.6584 465.743 76.6584 466.184 77.0997C466.625 77.5409 466.625 78.2597 466.184 78.701L460.156 84.7261C459.715 85.1673 458.996 85.1673 458.555 84.7261C458.33 84.5013 458.222 84.2043 458.225 83.9102C457.664 83.5605 456.979 83.4939 456.371 83.7131C456.313 84.5485 456.598 85.406 457.237 86.0443C458.405 87.2127 460.306 87.2127 461.475 86.0443L467.502 80.0165C468.671 78.8481 468.671 76.947 467.502 75.7786C466.334 74.6102 464.433 74.6102 463.265 75.7786L457.797 81.2459C458.463 81.3486 459.107 81.5984 459.682 81.998L464.583 77.0997Z" fill="white"/>
</g>
<g clip-path="url(#clip3)">
<path d="M366.29 27.2166C366.807 27.599 367.388 27.8522 367.993 27.9711L362.88 33.082C361.792 34.1698 360.022 34.1698 358.934 33.082C357.846 31.9942 357.846 30.2242 358.934 29.1364L364.546 23.5242C365.634 22.4364 367.404 22.4364 368.492 23.5242C369.099 24.1315 369.368 24.9531 369.295 25.749C368.706 25.9014 368.06 25.78 367.562 25.382C367.536 25.1521 367.44 24.9299 367.264 24.7516C366.854 24.3408 366.184 24.3408 365.774 24.7516L360.161 30.3637C359.751 30.7746 359.751 31.4438 360.161 31.8546C360.572 32.2655 361.241 32.2655 361.652 31.8546L366.29 27.2166ZM366.693 21.7285L370.639 17.7829C371.51 16.9121 372.923 16.9121 373.796 17.7829L374.324 18.31C374.38 18.3669 374.432 18.4237 374.479 18.4831C374.631 18.4547 374.776 18.3824 374.892 18.2661L375.799 17.3591C375.721 17.2635 375.639 17.1705 375.548 17.0827L375.021 16.5556C373.473 15.0078 370.957 15.0078 369.409 16.5556L365.466 20.5011C364.665 21.3021 364.283 22.3589 364.311 23.4106L364.37 23.3511C364.882 22.8395 365.531 22.5501 366.2 22.4804C366.306 22.2065 366.471 21.9507 366.693 21.7285ZM374.471 23.762C375.184 23.5604 375.729 24.3924 376.298 23.8653C376.298 23.8653 377.006 22.5475 376.696 19.6174L376.468 19.8448C376.003 20.3099 375.427 20.589 374.825 20.6897C375.031 21.4701 374.827 22.8499 374.471 23.762ZM372.225 26.196C368.722 26.2993 368.319 26.3329 367.22 25.4105L366.693 24.8834C366.631 24.8213 366.577 24.7593 366.525 24.6922C366.316 24.6896 366.107 24.7697 365.949 24.9273L365.14 25.736C365.241 25.8652 365.347 25.9918 365.466 26.1107L365.993 26.6378C367.032 27.6765 368.587 28.1029 372.138 28.0176C372.096 27.413 372.944 27.1908 372.225 26.196ZM379.186 11.3387C379.597 10.9279 380.266 10.9279 380.677 11.3387C381.088 11.7496 381.088 12.4188 380.677 12.8296L375.065 18.4392C374.654 18.85 373.985 18.85 373.574 18.4392C373.365 18.2299 373.264 17.9534 373.267 17.6795C372.745 17.354 372.107 17.292 371.541 17.4961C371.486 18.2738 371.753 19.0723 372.347 19.6665C373.435 20.7543 375.205 20.7543 376.292 19.6665L381.905 14.0544C382.992 12.9666 382.992 11.1966 381.905 10.1088C380.817 9.02102 379.047 9.02102 377.959 10.1088L372.869 15.199C373.489 15.2946 374.088 15.5272 374.623 15.8993L379.186 11.3387Z" fill="white"/>
</g>
<g clip-path="url(#clip4)">
<path d="M122.381 56.1285C122.917 56.5251 123.52 56.7876 124.147 56.9109L118.844 62.2111C117.716 63.3392 115.88 63.3392 114.752 62.2111C113.624 61.083 113.624 59.2475 114.752 58.1194L120.572 52.2994C121.7 51.1713 123.536 51.1713 124.664 52.2994C125.294 52.9291 125.572 53.7812 125.497 54.6065C124.886 54.7646 124.217 54.6386 123.699 54.226C123.673 53.9875 123.573 53.7571 123.391 53.5722C122.965 53.1461 122.271 53.1461 121.845 53.5722L116.025 59.3922C115.599 59.8182 115.599 60.5122 116.025 60.9383C116.451 61.3643 117.145 61.3643 117.571 60.9383L122.381 56.1285ZM122.799 50.4371L126.891 46.3454C127.794 45.4424 129.259 45.4424 130.165 46.3454L130.712 46.892C130.771 46.951 130.824 47.0099 130.873 47.0716C131.031 47.0421 131.181 46.9671 131.301 46.8465L132.242 45.9059C132.161 45.8068 132.076 45.7103 131.982 45.6192L131.435 45.0726C129.83 43.4675 127.22 43.4675 125.615 45.0726L121.526 49.1643C120.696 49.995 120.299 51.0909 120.328 52.1815L120.39 52.1199C120.921 51.5893 121.593 51.2892 122.287 51.2168C122.397 50.9328 122.569 50.6675 122.799 50.4371ZM130.865 52.5459C131.604 52.3369 132.169 53.1997 132.759 52.6531C132.759 52.6531 133.493 51.2865 133.172 48.2479L132.936 48.4837C132.454 48.966 131.856 49.2554 131.232 49.3599C131.446 50.1691 131.234 51.6 130.865 52.5459ZM128.536 55.0701C124.903 55.1772 124.484 55.2121 123.346 54.2555L122.799 53.7088C122.735 53.6445 122.678 53.5802 122.625 53.5105C122.408 53.5079 122.191 53.5909 122.027 53.7544L121.189 54.5931C121.293 54.7271 121.403 54.8584 121.526 54.9816L122.073 55.5283C123.15 56.6054 124.763 57.0476 128.445 56.9591C128.402 56.3321 129.281 56.1017 128.536 55.0701ZM135.755 39.6626C136.181 39.2365 136.875 39.2365 137.301 39.6626C137.727 40.0886 137.727 40.7826 137.301 41.2087L131.481 47.026C131.055 47.4521 130.361 47.4521 129.935 47.026C129.718 46.809 129.613 46.5222 129.616 46.2382C129.075 45.9006 128.413 45.8363 127.826 46.048C127.77 46.8545 128.046 47.6825 128.662 48.2988C129.79 49.4269 131.626 49.4269 132.754 48.2988L138.574 42.4788C139.702 41.3507 139.702 39.5152 138.574 38.3871C137.446 37.259 135.61 37.259 134.482 38.3871L129.203 43.6658C129.846 43.765 130.468 44.0061 131.023 44.392L135.755 39.6626Z" fill="white"/>
</g>
<path d="M151.035 215.535C151.454 215.202 151.783 214.789 152.009 214.329L155.016 219.541C155.656 220.65 155.275 222.073 154.166 222.713C153.057 223.353 151.634 222.972 150.994 221.863L147.691 216.142C147.051 215.033 147.432 213.61 148.541 212.97C149.16 212.613 149.878 212.574 150.503 212.803C150.498 213.31 150.262 213.803 149.834 214.118C149.644 214.089 149.445 214.118 149.263 214.221C148.845 214.463 148.7 215.001 148.942 215.42L152.245 221.141C152.487 221.559 153.025 221.703 153.444 221.462C153.862 221.22 154.007 220.682 153.765 220.263L151.035 215.535ZM146.71 214.029L144.388 210.007C143.875 209.119 144.18 207.983 145.068 207.469L145.605 207.158C145.663 207.125 145.72 207.096 145.778 207.071C145.788 206.942 145.761 206.81 145.692 206.692L145.159 205.767C145.065 205.809 144.973 205.856 144.882 205.909L144.345 206.22C142.767 207.13 142.225 209.154 143.136 210.731L145.459 214.751C145.93 215.568 146.697 216.103 147.549 216.307L147.514 216.246C147.213 215.724 147.12 215.141 147.208 214.588C147.011 214.444 146.841 214.255 146.71 214.029ZM150.02 208.214C150.012 207.598 150.798 207.339 150.497 206.768C150.497 206.768 149.59 205.915 147.167 205.533L147.301 205.765C147.575 206.239 147.675 206.762 147.626 207.268C148.298 207.27 149.364 207.731 150.02 208.214ZM151.493 210.544C150.822 213.383 150.762 213.714 149.784 214.398L149.246 214.709C149.183 214.745 149.122 214.775 149.056 214.802C149.009 214.97 149.029 215.156 149.121 215.316L149.597 216.141C149.723 216.088 149.847 216.03 149.969 215.96L150.506 215.649C151.565 215.038 152.243 213.879 152.939 211.007C152.444 210.91 152.448 210.181 151.493 210.544ZM141.048 201.747C140.807 201.328 140.951 200.79 141.37 200.549C141.788 200.307 142.326 200.451 142.568 200.87L145.869 206.59C146.111 207.009 145.967 207.547 145.548 207.789C145.334 207.912 145.09 207.933 144.871 207.872C144.497 208.222 144.309 208.721 144.352 209.22C144.965 209.431 145.664 209.389 146.27 209.04C147.379 208.399 147.76 206.977 147.12 205.868L143.817 200.147C143.177 199.038 141.754 198.657 140.645 199.297C139.536 199.937 139.155 201.36 139.795 202.469L142.791 207.658C143.001 207.18 143.317 206.748 143.732 206.398L141.048 201.747Z" fill="white"/>
<path d="M186.906 209.03C187.435 208.951 187.926 208.758 188.352 208.472L188.351 214.489C188.351 215.77 187.309 216.811 186.028 216.811C184.748 216.811 183.706 215.77 183.706 214.489L183.706 207.883C183.706 206.603 184.748 205.561 186.028 205.561C186.743 205.561 187.385 205.887 187.811 206.398C187.554 206.834 187.102 207.143 186.574 207.202C186.424 207.082 186.237 207.008 186.028 207.006C185.545 207.006 185.151 207.4 185.151 207.883L185.151 214.489C185.151 214.973 185.545 215.367 186.028 215.367C186.512 215.367 186.906 214.973 186.906 214.489L186.906 209.03ZM183.913 205.563L183.913 200.919C183.913 199.894 184.745 199.062 185.771 199.06L186.392 199.06C186.459 199.06 186.523 199.064 186.585 199.071C186.658 198.965 186.701 198.837 186.701 198.7L186.701 197.633C186.599 197.622 186.495 197.616 186.39 197.617H185.77C183.948 197.617 182.467 199.099 182.467 200.92L182.469 205.563C182.469 206.506 182.865 207.353 183.501 207.955L183.501 207.885C183.501 207.283 183.712 206.731 184.065 206.296C183.966 206.072 183.913 205.824 183.913 205.563ZM189.687 202.182C189.988 201.644 190.799 201.813 190.823 201.168C190.823 201.168 190.464 199.976 188.557 198.434L188.557 198.702C188.557 199.249 188.382 199.752 188.087 200.166C188.668 200.504 189.36 201.436 189.687 202.182ZM189.798 204.936C187.797 207.059 187.58 207.316 186.39 207.42L185.77 207.42C185.697 207.42 185.629 207.415 185.559 207.406C185.434 207.528 185.358 207.698 185.358 207.883V208.835C185.493 208.852 185.63 208.864 185.77 208.864L186.39 208.864C187.613 208.864 188.779 208.2 190.819 206.06C190.438 205.729 190.806 205.099 189.798 204.936ZM185.151 192.096C185.151 191.612 185.545 191.218 186.028 191.218C186.512 191.218 186.906 191.612 186.906 192.096L186.904 198.7C186.904 199.184 186.511 199.578 186.027 199.578C185.781 199.578 185.559 199.474 185.399 199.311C184.9 199.427 184.488 199.766 184.275 200.219C184.701 200.709 185.327 201.022 186.027 201.022C187.307 201.022 188.349 199.981 188.349 198.7L188.349 192.094C188.349 190.814 187.307 189.772 186.027 189.772C184.747 189.772 183.705 190.814 183.705 192.094L183.705 198.086C184.126 197.777 184.616 197.561 185.15 197.465L185.151 192.096Z" fill="white"/>
<path d="M222.356 221.118C222.851 221.321 223.372 221.406 223.884 221.378L220.807 226.549C220.153 227.65 218.725 228.013 217.625 227.358C216.524 226.704 216.161 225.276 216.816 224.175L220.192 218.498C220.846 217.397 222.274 217.034 223.375 217.689C223.989 218.054 224.374 218.662 224.479 219.318C224.035 219.562 223.489 219.597 223.005 219.378C222.937 219.198 222.815 219.038 222.636 218.93C222.221 218.683 221.681 218.82 221.434 219.236L218.057 224.914C217.81 225.329 217.947 225.869 218.363 226.116C218.779 226.364 219.319 226.226 219.566 225.811L222.356 221.118ZM221.556 216.609L223.93 212.617C224.453 211.736 225.594 211.446 226.477 211.97L227.01 212.287C227.067 212.321 227.121 212.356 227.17 212.395C227.288 212.341 227.389 212.252 227.459 212.135L228.005 211.217C227.923 211.156 227.837 211.098 227.746 211.046L227.213 210.729C225.647 209.797 223.617 210.313 222.686 211.879L220.314 215.87C219.832 216.681 219.74 217.612 219.979 218.454L220.015 218.394C220.323 217.876 220.786 217.51 221.312 217.317C221.341 217.074 221.422 216.834 221.556 216.609ZM228.246 216.654C228.78 216.346 229.391 216.905 229.741 216.363C229.741 216.363 230.042 215.155 229.191 212.855L229.054 213.085C228.775 213.556 228.367 213.899 227.902 214.104C228.229 214.691 228.347 215.846 228.246 216.654ZM226.934 219.078C224.129 219.88 223.811 219.99 222.736 219.471L222.203 219.154C222.14 219.116 222.083 219.078 222.028 219.034C221.859 219.075 221.706 219.182 221.611 219.342L221.125 220.16C221.233 220.243 221.344 220.324 221.464 220.395L221.998 220.713C223.048 221.337 224.391 221.362 227.237 220.566C227.08 220.086 227.718 219.733 226.934 219.078ZM229.503 205.666C229.75 205.251 230.29 205.114 230.706 205.361C231.121 205.608 231.259 206.148 231.011 206.563L227.634 212.239C227.387 212.655 226.847 212.792 226.432 212.545C226.22 212.419 226.082 212.216 226.028 211.995C225.54 211.839 225.013 211.92 224.598 212.201C224.714 212.839 225.092 213.429 225.693 213.786C226.794 214.441 228.222 214.078 228.876 212.977L232.253 207.3C232.907 206.199 232.544 204.771 231.444 204.117C230.343 203.462 228.915 203.825 228.261 204.926L225.198 210.076C225.718 210.026 226.25 210.09 226.757 210.281L229.503 205.666Z" fill="white"/>
<path d="M246.954 249.074C247.242 249.525 247.619 249.895 248.053 250.167L242.558 252.62C241.389 253.142 240.013 252.616 239.491 251.446C238.969 250.277 239.495 248.901 240.664 248.379L246.696 245.685C247.865 245.163 249.241 245.689 249.763 246.859C250.055 247.511 250.019 248.23 249.726 248.827C249.223 248.77 248.757 248.484 248.488 248.026C248.536 247.84 248.528 247.639 248.444 247.448C248.247 247.006 247.727 246.807 247.285 247.004L241.254 249.698C240.812 249.896 240.613 250.416 240.81 250.857C241.007 251.299 241.528 251.498 241.969 251.301L246.954 249.074ZM248.899 244.928L253.139 243.034C254.075 242.616 255.174 243.036 255.594 243.973L255.847 244.539C255.874 244.6 255.898 244.66 255.916 244.72C256.043 244.743 256.177 244.73 256.302 244.674L257.277 244.239C257.245 244.141 257.208 244.045 257.164 243.949L256.911 243.383C256.168 241.719 254.212 240.971 252.548 241.714L248.31 243.609C247.449 243.993 246.838 244.701 246.547 245.527L246.611 245.499C247.161 245.253 247.751 245.221 248.292 245.366C248.456 245.184 248.66 245.034 248.899 244.928ZM254.34 248.821C254.955 248.877 255.131 249.686 255.73 249.445C255.73 249.445 256.672 248.631 257.302 246.261L257.058 246.37C256.558 246.593 256.027 246.639 255.529 246.538C255.458 247.206 254.889 248.218 254.34 248.821ZM251.871 250.046C249.117 249.084 248.793 248.99 248.214 247.947L247.961 247.38C247.931 247.314 247.907 247.249 247.887 247.182C247.725 247.118 247.539 247.118 247.369 247.193L246.5 247.581C246.54 247.712 246.585 247.842 246.642 247.97L246.895 248.536C247.394 249.652 248.476 250.446 251.261 251.436C251.409 250.953 252.134 251.033 251.871 250.046ZM261.7 240.566C262.142 240.369 262.662 240.568 262.859 241.009C263.056 241.451 262.857 241.971 262.416 242.168L256.385 244.86C255.944 245.057 255.423 244.858 255.226 244.417C255.126 244.192 255.13 243.947 255.213 243.735C254.904 243.327 254.426 243.089 253.926 243.079C253.652 243.668 253.622 244.367 253.907 245.006C254.429 246.175 255.805 246.701 256.974 246.179L263.006 243.485C264.175 242.963 264.701 241.587 264.179 240.418C263.657 239.249 262.281 238.723 261.112 239.245L255.641 241.688C256.095 241.947 256.492 242.306 256.797 242.754L261.7 240.566Z" fill="white"/>
<g clip-path="url(#clip5)">
<path d="M252.689 289.116C252.768 289.645 252.961 290.136 253.247 290.562L247.229 290.561C245.949 290.561 244.907 289.519 244.907 288.238C244.907 286.958 245.949 285.916 247.229 285.916L253.835 285.916C255.116 285.916 256.157 286.958 256.157 288.238C256.157 288.953 255.832 289.595 255.321 290.021C254.885 289.764 254.576 289.312 254.517 288.784C254.637 288.634 254.711 288.447 254.713 288.238C254.713 287.755 254.319 287.361 253.835 287.361L247.229 287.361C246.746 287.361 246.352 287.755 246.352 288.238C246.352 288.722 246.746 289.116 247.229 289.116L252.689 289.116ZM256.156 286.123L260.8 286.123C261.825 286.123 262.657 286.955 262.658 287.981L262.658 288.602C262.658 288.669 262.655 288.733 262.648 288.795C262.754 288.868 262.882 288.911 263.019 288.911L264.086 288.911C264.097 288.809 264.103 288.705 264.101 288.6L264.101 287.98C264.101 286.158 262.62 284.677 260.798 284.677L256.156 284.679C255.213 284.679 254.366 285.075 253.764 285.711L253.834 285.711C254.436 285.711 254.988 285.922 255.423 286.275C255.646 286.176 255.894 286.123 256.156 286.123ZM259.536 291.897C260.075 292.198 259.906 293.009 260.551 293.033C260.551 293.033 261.743 292.674 263.285 290.767L263.017 290.767C262.47 290.767 261.966 290.592 261.553 290.297C261.215 290.878 260.283 291.57 259.536 291.897ZM256.782 292.008C254.66 290.007 254.403 289.79 254.299 288.6L254.299 287.98C254.299 287.907 254.304 287.839 254.313 287.769C254.191 287.644 254.021 287.568 253.835 287.568H252.883C252.867 287.703 252.854 287.84 252.854 287.98L252.854 288.6C252.854 289.823 253.519 290.989 255.659 293.029C255.99 292.648 256.62 293.016 256.782 292.008ZM269.623 287.361C270.107 287.361 270.5 287.755 270.5 288.238C270.5 288.722 270.107 289.116 269.623 289.116L263.019 289.114C262.535 289.114 262.141 288.721 262.141 288.237C262.141 287.991 262.245 287.769 262.407 287.609C262.292 287.11 261.953 286.698 261.5 286.485C261.01 286.911 260.697 287.537 260.697 288.237C260.697 289.517 261.738 290.559 263.019 290.559L269.624 290.559C270.905 290.559 271.947 289.517 271.947 288.237C271.947 286.957 270.905 285.915 269.624 285.915L263.633 285.915C263.942 286.336 264.158 286.826 264.253 287.359L269.623 287.361Z" fill="white"/>
</g>
<defs>
<linearGradient id="paint0_linear" x1="213.513" y1="179.72" x2="287.163" y2="389.807" gradientUnits="userSpaceOnUse">
<stop stop-color="#FFD5D3"/>
<stop offset="1" stop-color="#FE96A6"/>
</linearGradient>
<linearGradient id="paint1_linear" x1="399.15" y1="179.422" x2="386.421" y2="394.954" gradientUnits="userSpaceOnUse">
<stop stop-color="#52C4FF"/>
<stop offset="1" stop-color="#2C84FF"/>
</linearGradient>
<linearGradient id="paint2_linear" x1="282.584" y1="-45.9541" x2="392.604" y2="317.827" gradientUnits="userSpaceOnUse">
<stop stop-color="#52C4FF"/>
<stop offset="1" stop-color="#2C84FF"/>
</linearGradient>
<linearGradient id="paint3_linear" x1="303.89" y1="173.798" x2="291.161" y2="389.33" gradientUnits="userSpaceOnUse">
<stop stop-color="#52C4FF"/>
<stop offset="1" stop-color="#2C84FF"/>
</linearGradient>
<linearGradient id="paint4_linear" x1="380.596" y1="302.72" x2="640.719" y2="149.886" gradientUnits="userSpaceOnUse">
<stop stop-color="#FFD5D3"/>
<stop offset="1" stop-color="#FE96A6"/>
</linearGradient>
<linearGradient id="paint5_linear" x1="404.059" y1="179.711" x2="391.33" y2="395.244" gradientUnits="userSpaceOnUse">
<stop stop-color="#52C4FF"/>
<stop offset="1" stop-color="#2C84FF"/>
</linearGradient>
<linearGradient id="paint6_linear" x1="396.27" y1="265.338" x2="385.763" y2="328.391" gradientUnits="userSpaceOnUse">
<stop stop-color="#FFD5D3"/>
<stop offset="1" stop-color="#FE96A6"/>
</linearGradient>
<linearGradient id="paint7_linear" x1="254.208" y1="100.632" x2="301.044" y2="255.494" gradientUnits="userSpaceOnUse">
<stop stop-color="#52C4FF"/>
<stop offset="1" stop-color="#2C84FF"/>
</linearGradient>
<linearGradient id="paint8_linear" x1="449.628" y1="479.645" x2="305.94" y2="11.4413" gradientUnits="userSpaceOnUse">
<stop stop-color="#002757"/>
<stop offset="1" stop-color="#061F3E"/>
</linearGradient>
<linearGradient id="paint9_linear" x1="377.026" y1="258.013" x2="301.459" y2="9.02957" gradientUnits="userSpaceOnUse">
<stop stop-color="#FFD5D3"/>
<stop offset="1" stop-color="#FE96A6"/>
</linearGradient>
<linearGradient id="paint10_linear" x1="376.978" y1="256.639" x2="337.779" y2="128.911" gradientUnits="userSpaceOnUse">
<stop stop-color="#FFD5D3"/>
<stop offset="1" stop-color="#FE96A6"/>
</linearGradient>
<linearGradient id="paint11_linear" x1="306.008" y1="150.968" x2="468.892" y2="-29.335" gradientUnits="userSpaceOnUse">
<stop stop-color="#FFD5D3"/>
<stop offset="1" stop-color="#FE96A6"/>
</linearGradient>
<linearGradient id="paint12_linear" x1="555.324" y1="182.605" x2="532.29" y2="250.512" gradientUnits="userSpaceOnUse">
<stop stop-color="#56E281"/>
<stop offset="1" stop-color="#00966A"/>
</linearGradient>
<linearGradient id="paint13_linear" x1="486.222" y1="198.731" x2="499.558" y2="245.416" gradientUnits="userSpaceOnUse">
<stop stop-color="#56E281"/>
<stop offset="1" stop-color="#00966A"/>
</linearGradient>
<linearGradient id="paint14_linear" x1="538.264" y1="236.11" x2="533.112" y2="379.799" gradientUnits="userSpaceOnUse">
<stop stop-color="#56E281"/>
<stop offset="1" stop-color="#00966A"/>
</linearGradient>
<linearGradient id="paint15_linear" x1="500.172" y1="234.637" x2="495.019" y2="378.325" gradientUnits="userSpaceOnUse">
<stop stop-color="#56E281"/>
<stop offset="1" stop-color="#00966A"/>
</linearGradient>
<linearGradient id="paint16_linear" x1="141.399" y1="-14.7037" x2="233.542" y2="161.134" gradientUnits="userSpaceOnUse">
<stop stop-color="#F4ABFF"/>
<stop offset="1" stop-color="#9552FF"/>
</linearGradient>
<linearGradient id="paint17_linear" x1="97.4064" y1="-13.7537" x2="193.791" y2="195.43" gradientUnits="userSpaceOnUse">
<stop stop-color="#FFF489"/>
<stop offset="1" stop-color="#FE7F20"/>
</linearGradient>
<linearGradient id="paint18_linear" x1="87.6254" y1="-57.7837" x2="139.151" y2="84.0938" gradientUnits="userSpaceOnUse">
<stop stop-color="#FFF489"/>
<stop offset="1" stop-color="#FE7F20"/>
</linearGradient>
<linearGradient id="paint19_linear" x1="431.883" y1="46.9474" x2="490.08" y2="146.995" gradientUnits="userSpaceOnUse">
<stop stop-color="#31E282"/>
<stop offset="1" stop-color="#006391"/>
</linearGradient>
<clipPath id="clip0">
<rect width="622.379" height="537.633" fill="white" transform="translate(0 0.183594)"/>
</clipPath>
<clipPath id="clip1">
<rect width="60.142" height="60.142" fill="white" transform="translate(36.4502 136.869)"/>
</clipPath>
<clipPath id="clip2">
<rect width="26.426" height="26.426" fill="white" transform="translate(441.953 74.9062)"/>
</clipPath>
<clipPath id="clip3">
<rect width="24.6036" height="24.6036" fill="white" transform="translate(358.117 9.29688)"/>
</clipPath>
<clipPath id="clip4">
<rect width="25.5148" height="25.5148" fill="white" transform="translate(113.905 37.5449)"/>
</clipPath>
<clipPath id="clip5">
<rect width="20.4776" height="20.4776" fill="white" transform="translate(258.426 273.758) rotate(45)"/>
</clipPath>
</defs>
</svg>
