<svg id="Layer_1" data-name="Layer 1" xmlns="http://www.w3.org/2000/svg" viewBox="0 0 70 70"><defs><style>.cls-1{fill:#ee3a3a;}.cls-2{fill:#1f4393;}.cls-3{fill:#ffc10e;}.cls-4{fill:#8f3f97;}.cls-5{fill:#ee518b;}.cls-6{fill:#4592cf;}.cls-7{fill:#17ae4b;}</style></defs><circle class="cls-1" cx="35.75" cy="51.23" r="11.95"/><path class="cls-2" d="M56.23,20.2c2.08,3.61,1.49,8.36-.6,12.12A13,13,0,0,1,45.9,39.4c-1.21.33-10.14,1.61-18.06-9.2-.67-.87-4.47-6.75-9.13-7.07a9.39,9.39,0,0,0-9.48,6,9.14,9.14,0,0,0,2,9.08c.71.63,8.77,9.49,9.93,10.39.58.45,4.09,6.2-2.08,13.44A27.87,27.87,0,0,1,3.61,40.61c-.33-2.29-1.74-14,6.51-23.43A30.34,30.34,0,0,1,35.63,6.91C36.9,7,49.56,8.61,56.23,20.2Z"/><rect class="cls-3" x="50.99" y="41.74" width="4.23" height="4.23" transform="translate(-8.63 13.32) rotate(-13.23)"/><rect class="cls-4" x="54.5" y="48.45" width="4.23" height="4.23" transform="matrix(0.89, 0.46, -0.46, 0.89, 29.83, -20.46)"/><rect class="cls-1" x="49.1" y="54.12" width="4.23" height="4.23" transform="matrix(-0.26, 0.96, -0.96, -0.26, 118.93, 21.6)"/><rect class="cls-5" x="62.06" y="52.03" width="4.23" height="4.23" transform="translate(12.89 -12.34) rotate(12.2)"/><rect class="cls-6" x="56.44" y="34.94" width="4.23" height="4.23" transform="translate(31.54 100.87) rotate(-99.38)"/><rect class="cls-7" x="59.55" y="41.25" width="4.23" height="4.23"/><path class="cls-3" d="M20,47.56l-1.77-1.87a1.28,1.28,0,0,1,.05-1.82,1.3,1.3,0,0,1,1.82.05l1.77,1.87A6.43,6.43,0,1,0,31.22,37l-1.77-1.87a1.29,1.29,0,1,1,1.87-1.77l1.77,1.87A9,9,0,0,1,20,47.56Z"/><path class="cls-3" d="M13,40.09l-1.77-1.87A9,9,0,0,1,24.25,25.84L26,27.71a1.28,1.28,0,1,1-1.86,1.77l-1.77-1.87A6.43,6.43,0,0,0,13,36.46l1.77,1.86A1.28,1.28,0,1,1,13,40.09Z"/><path class="cls-3" d="M23.85,40.39l-5.3-5.6A1.28,1.28,0,1,1,20.41,33l5.31,5.6a1.27,1.27,0,0,1,0,1.81A1.29,1.29,0,0,1,23.85,40.39Z"/></svg>