<svg xmlns="http://www.w3.org/2000/svg" viewBox="0 0 219 69" width="219" height="69">
	<style>
		tspan { white-space:pre }
		.shp0 { fill: #ee3a3a } 
		.shp1 { fill: #ffffff } 
		.shp2 { fill: #1f4393 } 
		.shp3 { fill: #ffc10e } 
		.shp4 { fill: #8f3f97 } 
		.shp5 { fill: #ee518b } 
		.shp6 { fill: #4592cf } 
		.shp7 { fill: #17ae4b } 
	</style>
	<path id="Layer" class="shp0" d="M34.4 58.8C28.37 58.8 23.5 53.93 23.5 47.9C23.5 41.87 28.37 37 34.4 37C40.43 37 45.3 41.87 45.3 47.9C45.3 53.93 40.43 58.8 34.4 58.8Z" />
	<g id="Layer">
		<path id="Layer" fill-rule="evenodd" class="shp1" d="M74.6 31C74.6 22.4 79.4 16.6 87.2 16.6C95 16.6 99.8 22.4 99.8 31C99.8 39.6 95 45.4 87.2 45.4C79.4 45.4 74.6 39.6 74.6 31ZM87.2 40.2C91.3 40.2 93.4 36.5 93.4 31C93.4 25.4 91.3 21.8 87.2 21.8C83.1 21.8 81 25.5 81 31C80.9 36.5 83.1 40.2 87.2 40.2Z" />
		<path id="Layer" class="shp1" d="M103.3 33L116.3 33L116.3 36.1L103.3 36.1L103.3 33Z" />
	</g>
	<g id="Layer">
		<path id="Layer" class="shp1" d="M119.3 22L119.3 17L141.6 17L141.6 22L133.4 22L133.4 45L127.3 45L127.3 22L119.3 22Z" />
	</g>
	<g id="Layer">
		<path id="Layer" class="shp1" d="M139.7 45L139.7 27L144.8 27L145.1 30L145.2 30C146.2 28.1 148.8 26.4 152 26.7L152 31.7C151.4 31.6 150.9 31.5 150.4 31.5C147.1 31.5 145.6 33.7 145.3 36.3L145.3 44.9L139.7 44.9L139.7 45Z" />
		<path id="Layer" class="shp1" d="M158.6 15.9C160.4 15.9 162 17.4 162 19.3C162 21.1 160.4 22.6 158.6 22.6C156.7 22.6 155.2 21.1 155.2 19.3C155.2 17.4 156.7 15.9 158.6 15.9ZM155.8 27L161.4 27L161.4 45L155.8 45L155.8 27Z" />
		<path id="Layer" class="shp1" d="M166.1 27L171.2 27L171.4 29.3L171.5 29.3C172.5 27.8 174.3 26.6 176.7 26.6C179.9 26.6 181.7 27.8 182.7 30.4L182.8 30.4C183.7 28.5 185.7 26.6 188.6 26.6C193.5 26.6 195.5 29.5 195.5 35.7L195.5 45L190 45L190 36.2C190 33.2 189.4 31.3 186.9 31.3C184.9 31.3 183.9 33.1 183.6 35.6L183.6 44.9L178 44.9L178 36.1C178 33.1 177.4 31.2 174.9 31.2C173 31.2 171.9 33 171.6 35.5L171.6 44.9L166 44.9L166 27L166.1 27Z" />
	</g>
	<path id="Layer" class="shp2" d="M53.1 19.5C55 22.8 54.5 27.1 52.5 30.6C50.8 34.1 47.4 36.5 43.6 37.1C42.5 37.4 34.3 38.6 27.1 28.7C26.5 27.9 23 22.5 18.7 22.2C14.9 21.9 11.4 24.2 10 27.7C9 30.6 9.7 33.8 11.8 36C12.4 36.6 19.8 44.7 20.9 45.5C21.4 45.9 24.7 51.2 19 57.8C11.3 54 6 46.7 4.9 38.2C4.6 36.1 3.3 25.4 10.9 16.8C16.7 10.1 25.4 6.6 34.2 7.4C35.4 7.4 47 8.9 53.1 19.5Z" />
	<path id="Layer" class="shp3" d="M47.93 39.7L51.73 38.81L52.62 42.61L48.83 43.5L47.93 39.7Z" />
	<path id="Layer" class="shp4" d="M50.8 48.08L52.61 44.62L56.06 46.43L54.26 49.88L50.8 48.08Z" />
	<path id="Layer" class="shp5" d="M58.06 52.06L58.89 48.25L62.7 49.07L61.88 52.88L58.06 52.06Z" />
	<path id="Layer" class="shp6" d="M53.02 33.33L56.86 32.7L57.5 36.55L53.65 37.18L53.02 33.33Z" />
	<path id="Layer" class="shp7" d="M56.2 38.7L60.1 38.7L60.1 42.6L56.2 42.6L56.2 38.7Z" />
	<path id="Layer" class="shp3" d="M20 44.5L18.4 42.8C17.9 42.3 17.9 41.6 18.4 41.1C18.9 40.7 19.6 40.7 20 41.1L20 41.1L21.6 42.8C23.8 45.2 27.6 45.3 29.9 43C32.3 40.8 32.4 37 30.1 34.7L30.1 34.7L28.5 33C28.1 32.5 28.1 31.8 28.6 31.3C29.1 30.9 29.7 30.9 30.2 31.3L31.8 33C34.9 36.3 34.8 41.5 31.5 44.7C28.3 48 23 47.8 20 44.5L20 44.5L20 44.5Z" />
	<path id="Layer" class="shp3" d="M13.5 37.7L11.9 36C8.8 32.7 8.9 27.5 12.2 24.3C15.5 21.2 20.7 21.3 23.9 24.6L23.9 24.6L25.5 26.3C25.9 26.8 25.9 27.5 25.4 28C24.9 28.4 24.3 28.4 23.8 28L22.2 26.3C20 23.9 16.2 23.8 13.9 26.1C11.5 28.3 11.4 32.1 13.7 34.4L13.7 34.4L15.3 36.1C15.7 36.6 15.7 37.3 15.2 37.8C14.7 38.1 14 38.1 13.5 37.7L13.5 37.7Z" />
	<path id="Layer" class="shp3" d="M23.5 37.9L18.6 32.8C18.2 32.3 18.2 31.6 18.7 31.1C19.2 30.7 19.8 30.7 20.3 31.1L25.2 36.2C25.6 36.7 25.6 37.4 25.1 37.9C24.6 38.4 23.9 38.3 23.5 37.9Z" />
</svg>