<svg xmlns="http://www.w3.org/2000/svg" width="89.582" height="71.619" viewBox="0 0 89.582 71.619">
  <g id="Group_2" data-name="Group 2" transform="translate(-201.061 -165.038)">
    <path id="Path_3" data-name="Path 3" d="M201.072,170.444c0-1.648.014-3.3-.011-4.944-.006-.374.061-.471.453-.462,1.377.032,2.756.012,4.134.012a.165.165,0,0,1,.045.138c-.008.049-.018.073-.028.073-1.8,1.192-2.812,3.065-4.064,4.729a2.615,2.615,0,0,1-.318.471A.175.175,0,0,1,201.072,170.444Z" transform="translate(0)" fill="#fefefe"/>
    <path id="Path_4" data-name="Path 4" d="M201.128,198.066a.579.579,0,0,1,.135,0,.65.65,0,0,1,0,.988H201.2l-.069,0Z" transform="translate(-0.056 -27.622)" fill="#e2f4f6"/>
    <path id="Path_5" data-name="Path 5" d="M746.865,564.835a.684.684,0,0,1,.135,0v.981l-.067.005-.068,0A.647.647,0,0,1,746.865,564.835Z" transform="translate(-456.358 -334.417)" fill="#e4f5f7"/>
    <path id="Path_6" data-name="Path 6" d="M229.1,165.256q0-.069,0-.139h.817q0,.068,0,.136A.527.527,0,0,1,229.1,165.256Z" transform="translate(-23.451 -0.066)" fill="#e6f6f7"/>
    <path id="Path_7" data-name="Path 7" d="M280.2,360.475a42.291,42.291,0,0,1-16.036,1.124,43.958,43.958,0,0,1-23.728-10.625A46.347,46.347,0,0,1,229.885,337.6a4.822,4.822,0,0,1,.01-4.962,51.764,51.764,0,0,1,4.44-6.735c.329-.421.535-.52,1.009-.148q6.779,5.311,13.6,10.567a1.31,1.31,0,0,1,.535,1.019,20.23,20.23,0,0,0,16.335,17.638,20.727,20.727,0,0,0,6.732.015.991.991,0,0,1,.834.182C275.61,356.914,277.845,358.646,280.2,360.475Z" transform="translate(-23.54 -134.241)"/>
    <path id="Path_8" data-name="Path 8" d="M291.252,231.181a2.92,2.92,0,0,0-1.229-1.572q-7.26-5.622-14.522-11.241c-.464-.357-.444-.517-.025-.877a46.062,46.062,0,0,0,10.662-13.4,4.875,4.875,0,0,0-.052-4.965,51.662,51.662,0,0,0-5.769-8.488,44.151,44.151,0,0,0-28.245-15.411,42.921,42.921,0,0,0-13.074.31,41.441,41.441,0,0,0-12.27,4.236,1.073,1.073,0,0,1-1.371-.136q-8.368-6.526-16.773-13.006a3.126,3.126,0,0,0-1.371-.685l-.823,0a2.682,2.682,0,0,0-1.481,1.055q-1.057,1.377-2.133,2.74a3.506,3.506,0,0,0-.825,1.456q0,.494,0,.988a2.733,2.733,0,0,0,1,1.356q13.021,10.054,26.035,20.116,14.987,11.582,29.974,23.164,12.889,9.959,25.78,19.913a2.268,2.268,0,0,0,3.593-.465c.506-.64,1.01-1.284,1.488-1.945a7.32,7.32,0,0,0,1.429-2.162Zm-26.2-21.665c-.165.38-.263.6-.708.241q-2.225-1.791-4.506-3.512a.859.859,0,0,1-.362-1.086,13.226,13.226,0,0,0-11.691-16.828,12.553,12.553,0,0,0-4.678.468,6.664,6.664,0,0,1,1.056,5.35l-10.328-7.987a19.967,19.967,0,0,1,25.373-.183,19.914,19.914,0,0,1,5.843,23.537Z" transform="translate(-0.744 -0.763)"/>
  </g>
</svg>
