<svg xmlns="http://www.w3.org/2000/svg" width="490.789" height="326.758" viewBox="0 0 490.789 326.758">
  <g id="Group_1" data-name="Group 1" transform="translate(-319.608 -208.031)">
    <path id="Path_1" data-name="Path 1" d="M560.69,208.031c68.185.609,124.547,21.189,174.007,60.853,30.6,24.536,54.047,54.974,72.382,89.468,4.806,9.042,4.207,18.079-.614,27.158-25.711,48.426-61.848,86.835-109.488,114.148a259.32,259.32,0,0,1-91.218,31.96c-65.8,9.828-127.083-3.247-183.412-38.456-43.212-27.011-75.971-63.864-99.429-109.054-4.577-8.818-4.346-17.609.309-26.24,13.666-25.342,29.974-48.79,50.375-69.221,36.248-36.3,79.159-60.922,129.054-73.109a203.5,203.5,0,0,1,24.871-4.95C540.055,209.145,552.687,208.615,560.69,208.031ZM441.57,371.261c-1.024,66.955,53.414,124.018,123.332,124.006,69.85-.013,123.163-56.273,123.784-122.746.641-68.59-55.449-124.494-122.542-125.039C496.949,246.919,440.431,304.022,441.57,371.261Z"/>
    <path id="Path_2" data-name="Path 2" d="M486.828,351.45c22.388,13.028,41.523,6.039,52.953-5.247,11.01-10.873,18.135-29.759,5.5-52.749,26.791-9.286,65.012,1.124,85.388,29.915,22.627,31.971,20.505,73.58-4.918,101.785-26.008,28.854-66.654,35.443-100.877,16.353C493.825,424.187,477.12,384.935,486.828,351.45Z"/>
  </g>
</svg>
