<svg xmlns="http://www.w3.org/2000/svg" width="127.749" height="243.867" viewBox="0 0 127.749 243.867">
  <g id="Group_925" data-name="Group 925" transform="translate(-85.249 -367.703)">
    <path id="Subtraction_2" data-name="Subtraction 2" d="M110.024,176.46a14.967,14.967,0,0,1-5.485-1.065,26.6,26.6,0,0,1-11.967-8.957,28.1,28.1,0,0,1-3.672-6.882A38.631,38.631,0,0,1,86.861,151l-.078-.614c-.69-5.428-1.4-11.041-3.775-16.027-1.72-3.619-3.866-5.3-6.753-5.3-.228,0-.464.011-.7.033l-.05,0a2.081,2.081,0,0,1-1.353-.981c-4.8-7.439-9.691-15.091-14.548-22.745-3.535-5.569-7.1-11.223-10.548-16.69l-.12-.191c-1.667-2.643-3.39-5.376-5.086-8.061l-2.765-4.378H53.071l2.8-1.672c2.753,3.5,3.752,4.764,5.94,7.534l.03.038,1.512,1.915c2.566,3.249,4.83,6.07,7.018,8.8l.008.01c3.3,4.11,6.413,7.992,10.212,12.895a7.654,7.654,0,0,1,1.678,4.144,18.472,18.472,0,0,0,4.92,13.09,48.848,48.848,0,0,1,3.954,5.276l0,0c.549.805,1.117,1.637,1.69,2.431a16.275,16.275,0,0,1,10.46-3.943,19.058,19.058,0,0,1,10.63,3.542,27.117,27.117,0,0,1,7.857,8.38,35.009,35.009,0,0,1,4.48,11.411,28.589,28.589,0,0,1-.459,12.522,20.2,20.2,0,0,1-6.058,10.27A14.625,14.625,0,0,1,110.024,176.46Zm-5.142-42.741c-6.963,0-12.563,6.224-13.316,14.8-.914,10.4,5.655,20.626,14.344,22.328a12.461,12.461,0,0,0,2.389.235c5.979,0,10.979-4.444,12.737-11.323a20.989,20.989,0,0,0-.967-13.691c-2.118-5.41-5.315-9.043-9.773-11.106A12.843,12.843,0,0,0,104.882,133.719ZM55.026,84.872h0a5.949,5.949,0,0,0-1.194,6.3c.963,2.119,2.226,3.106,3.974,3.106.086,0,.175,0,.263-.007l-3.043-9.4Zm3.2-1.451-.173,0,.132.413.072.224c.944,2.964,1.872,5.875,2.855,8.96a5.967,5.967,0,0,0,1.476-6.379A4.308,4.308,0,0,0,58.228,83.421ZM6.524,9.055H1.648A41.3,41.3,0,0,1,0,0C1.8,2.288,3.876,5.164,6.523,9.053Z" transform="translate(85.75 386.945)" fill="#fff" stroke="#fff" stroke-width="1"/>
    <path id="Path_415" data-name="Path 415" d="M874.022,437.424c-.257-5.663-.327-11.235-.867-16.741a10.267,10.267,0,0,0-2.5-4.891,11.841,11.841,0,0,1-2.543-8.264c.133-5.857-.134-11.726-.224-17.591-.009-.562.05-1.126.1-2.166,2.178,3.439,4.127,6.509,6.07,9.584,3.662,5.8,7.473,11.471,10.887,17.466,1,1.754.873,4.416,1.234,6.668.021.132-.2.351-.338.48-4.15,3.846-3.384,8.724-1.516,13.314a80.785,80.785,0,0,0,6.449,12.534c6.838,10.854,6,29.82-3.992,38.4-4.98,4.274-7.985,10.466-12.155,15.491-3.414,4.114-6.645,8.442-10.029,12.593-.473.581-1.353.695-2.044,1.024a9.122,9.122,0,0,1-.42-2.8,8.105,8.105,0,0,1,1.287-2.593,89.646,89.646,0,0,0,4.805-8.047c2.095-4.51,2.109-9.167-.594-13.468-1.689-2.687-3.608-5.176-5.239-7.909-7.185-12.042-5.961-28.889,2.414-37.863,2.659-2.849,3.757-3.734,9.215-5.224m-9.84,36.041c.9,1.479,1.695,3.063,2.708,4.42,6.323,8.466,16.248,7.872,21.753-1.252,5.284-8.757,3.017-22.808-4.623-28.663-4.788-3.668-10.731-3.614-14.954.137-6.486,5.761-8.463,16.264-4.883,25.357" transform="translate(-730.157 95.51)" fill="#fff" stroke="#fff" stroke-width="1"/>
    <path id="Path_416" data-name="Path 416" d="M891.65,0a29.3,29.3,0,0,1,5.757,14.5c1.449,13.362,2.764,26.745,4.183,40.112q2.439,22.981,4.958,45.95c.053.5.043,1,.077,1.883-3.071-3.871-5.729-7.756-8.849-11.016-3.806-3.977-5.144-8.51-5.142-14.567,0-21.7-.484-43.4-.79-65.1-.055-3.917-.129-7.835-.194-11.752" transform="translate(-755.62 368)" fill="#fff" stroke="#fff" stroke-width="1"/>
  </g>
</svg>
