<svg xmlns="http://www.w3.org/2000/svg" width="24" height="24" viewBox="0 0 24 24">
  <g id="twitter" transform="translate(-0.001)">
    <circle id="Ellipse_229" data-name="Ellipse 229" cx="12" cy="12" r="12" transform="translate(0.001 0)" fill="#55acee"/>
    <g id="Group_11770" data-name="Group 11770" transform="translate(5.525 7.414)">
      <path id="Path_9474" data-name="Path 9474" d="M38.8,35.345a5.605,5.605,0,0,1-1.614.442,2.817,2.817,0,0,0,1.236-1.554,5.624,5.624,0,0,1-1.784.682,2.812,2.812,0,0,0-4.787,2.563,7.975,7.975,0,0,1-5.791-2.936,2.812,2.812,0,0,0,.869,3.751,2.79,2.79,0,0,1-1.272-.352c0,.012,0,.024,0,.036a2.811,2.811,0,0,0,2.254,2.754,2.82,2.82,0,0,1-1.269.049,2.812,2.812,0,0,0,2.624,1.951A5.671,5.671,0,0,1,25.1,43.894a7.989,7.989,0,0,0,12.3-6.731c0-.122,0-.243-.008-.363a5.7,5.7,0,0,0,1.4-1.454Z" transform="translate(-25.103 -34.028)" fill="#f1f2f2"/>
    </g>
  </g>
</svg>
