<svg xmlns="http://www.w3.org/2000/svg" width="26.138" height="29.2" viewBox="0 0 26.138 29.2">
  <g id="_709722" data-name="709722" transform="translate(-24.165)">
    <g id="Group_89" data-name="Group 89" transform="translate(29.654)">
      <g id="Group_88" data-name="Group 88" transform="translate(0)">
        <path id="Path_381" data-name="Path 381" d="M118.372,0a7.581,7.581,0,1,0,7.581,7.581A7.6,7.6,0,0,0,118.372,0Z" transform="translate(-110.791)" fill="#fff"/>
      </g>
    </g>
    <g id="Group_91" data-name="Group 91" transform="translate(24.165 15.705)">
      <g id="Group_90" data-name="Group 90">
        <path id="Path_382" data-name="Path 382" d="M50.247,253.357a7.07,7.07,0,0,0-.761-1.391,9.424,9.424,0,0,0-6.522-4.105,1.4,1.4,0,0,0-.96.232,8.081,8.081,0,0,1-9.535,0,1.242,1.242,0,0,0-.96-.232,9.355,9.355,0,0,0-6.522,4.105,8.15,8.15,0,0,0-.761,1.391.7.7,0,0,0,.033.629,13.2,13.2,0,0,0,.894,1.324,12.581,12.581,0,0,0,1.523,1.722,19.837,19.837,0,0,0,1.523,1.324,15.1,15.1,0,0,0,18.01,0,14.553,14.553,0,0,0,1.523-1.324,15.287,15.287,0,0,0,1.523-1.722,11.6,11.6,0,0,0,.894-1.324A.565.565,0,0,0,50.247,253.357Z" transform="translate(-24.165 -247.841)" fill="#fff"/>
      </g>
    </g>
  </g>
</svg>
