<svg xmlns="http://www.w3.org/2000/svg" width="24" height="24" viewBox="0 0 24 24">
  <g id="Group_11881" data-name="Group 11881" transform="translate(-1756.999 -2240)">
    <g id="Group_11783" data-name="Group 11783" transform="translate(2049.165 2303.752)">
      <circle id="Ellipse_230" data-name="Ellipse 230" cx="12" cy="12" r="12" transform="translate(-292.166 -63.752)" fill="#2db841"/>
    </g>
    <path id="Icon_ionic-logo-whatsapp" data-name="Icon ionic-logo-whatsapp" d="M9.743,2.25A7.2,7.2,0,0,0,2.517,9.42a7.1,7.1,0,0,0,1.037,3.7l-1.037,3.14L6.25,15.7A7.238,7.238,0,0,0,16.969,9.42,7.2,7.2,0,0,0,9.743,2.25Zm3.593,9.893a1.866,1.866,0,0,1-1.278.824c-.339.018-.349.263-2.2-.54a7.539,7.539,0,0,1-3.046-2.88,3.544,3.544,0,0,1-.682-1.921,2.047,2.047,0,0,1,.7-1.5.708.708,0,0,1,.5-.211c.145,0,.24,0,.347,0s.269-.023.409.35.475,1.286.517,1.38a.335.335,0,0,1,0,.321,1.255,1.255,0,0,1-.2.3c-.1.1-.2.231-.289.31s-.2.183-.1.37a5.529,5.529,0,0,0,.978,1.306,5.041,5.041,0,0,0,1.449.963c.181.1.289.088.4-.031s.481-.517.611-.7.252-.144.419-.077,1.056.544,1.238.642.3.149.345.227A1.517,1.517,0,0,1,13.336,12.143Z" transform="translate(1759.39 2242.391)" fill="#f8fcff"/>
  </g>
</svg>
