<svg xmlns="http://www.w3.org/2000/svg" width="128.33" height="140" viewBox="0 0 128.33 140">
  <g id="_1828960" data-name="1828960" opacity="0.1">
    <g id="Group_94" data-name="Group 94">
      <path id="Path_15" data-name="Path 15" d="M331.206,43.749a21.874,21.874,0,1,1,21.875-21.874A21.9,21.9,0,0,1,331.206,43.749Zm0-35a13.125,13.125,0,1,0,13.125,13.125A13.14,13.14,0,0,0,331.206,8.75Zm0,0" transform="translate(-224.751)"/>
      <path id="Path_16" data-name="Path 16" d="M331.206,395.749a21.874,21.874,0,1,1,21.875-21.874A21.9,21.9,0,0,1,331.206,395.749Zm0-35a13.125,13.125,0,1,0,13.125,13.125A13.14,13.14,0,0,0,331.206,360.75Zm0,0" transform="translate(-224.751 -255.748)"/>
      <path id="Path_17" data-name="Path 17" d="M21.874,219.749a21.874,21.874,0,1,1,21.874-21.874A21.9,21.9,0,0,1,21.874,219.749Zm0-35A13.125,13.125,0,1,0,35,197.874,13.14,13.14,0,0,0,21.874,184.75Zm0,0" transform="translate(0 -127.877)"/>
      <path id="Path_18" data-name="Path 18" d="M124.068,135.17A4.373,4.373,0,0,1,121.9,127L176.024,96.14a4.374,4.374,0,0,1,4.328,7.6L126.225,134.6a4.383,4.383,0,0,1-2.158.571Zm0,0" transform="translate(-86.962 -69.429)"/>
      <path id="Path_19" data-name="Path 19" d="M178.2,311.162a4.337,4.337,0,0,1-2.159-.577l-54.126-30.858a4.373,4.373,0,0,1,4.329-7.6l54.125,30.857a4.377,4.377,0,0,1-2.169,8.178Zm0,0" transform="translate(-86.978 -197.299)"/>
    </g>
  </g>
</svg>
