<svg xmlns="http://www.w3.org/2000/svg" width="103.576" height="115.413" viewBox="0 0 103.576 115.413">
  <g id="Group_914" data-name="Group 914" transform="translate(-68.042 -433.508)" opacity="0.1">
    <path id="Path_20" data-name="Path 20" d="M119.128,435.379c-.872,6.874-1.573,13.12-2.509,19.332a3.393,3.393,0,0,0,1.67,3.82q7.267,5.048,14.357,10.346a13.6,13.6,0,0,1,2.274,3,14.072,14.072,0,0,1-3.165,1.547c-5.959,1.241-11.965,2.256-17.9,3.575a4.321,4.321,0,0,0-2.673,2.374c-1.941,5.457-3.563,11.027-5.451,16.5a16.067,16.067,0,0,1-2.24,3.39,18.639,18.639,0,0,1-2.755-3.041q-4.245-7.422-8.218-15a3.265,3.265,0,0,0-3.39-2c-6,.1-12,.084-18-.01a11.37,11.37,0,0,1-3.085-.966,11.353,11.353,0,0,1,1.418-3.157c3.822-4.238,7.7-8.432,11.718-12.484,1.542-1.555,1.989-2.83,1.179-5.013-2.05-5.519-3.79-11.156-5.547-16.779a9.926,9.926,0,0,1,0-2.96c1.068.03,2.281-.262,3.181.141,5.554,2.486,11.074,5.056,16.522,7.765a3.332,3.332,0,0,0,4.115-.458c4.881-3.806,9.851-7.5,14.855-11.142a3.163,3.163,0,0,1,2.565-.55C118.7,433.885,118.956,435.065,119.128,435.379ZM73.805,475.663c5.921,0,11.106.173,16.271-.068,2.845-.133,4.35.876,5.588,3.382,2.252,4.558,4.873,8.934,7.611,13.877,1.272-3.955,2.754-7.255,3.35-10.708,1.09-6.312,4.256-9.507,10.882-9.607,3.431-.052,6.845-1.226,10.9-2.015-4.449-3.211-8.117-6.256-12.167-8.655-3.273-1.939-3.764-4.334-3.184-7.71.794-4.621,1.235-9.3,1.916-14.654-3.55,2.558-6.793,4.384-9.391,6.88-4.394,4.223-8.613,4.761-13.76,1.333-3.034-2.02-6.61-3.227-10.6-5.109,1.88,5.757,3.378,10.732,5.154,15.606a4.473,4.473,0,0,1-1.188,5.394C81.451,467.336,77.925,471.27,73.805,475.663Z"/>
    <path id="Path_21" data-name="Path 21" d="M180.119,544.17c-1.485.419-2.45.983-3.3.842-.724-.12-1.346-1.017-1.957-1.626q-10.371-10.349-20.722-20.718c-.546-.546-1.274-1.035-1.54-1.7-.243-.612-.248-1.778.13-2.07a3.04,3.04,0,0,1,2.308-.295c.57.139,1.005.858,1.484,1.335q10.568,10.561,21.121,21.139C178.363,541.8,178.93,542.673,180.119,544.17Z" transform="translate(-35.344 -35.599)"/>
    <path id="Path_22" data-name="Path 22" d="M111.285,565.023c-13.221.021-25.064-13.677-19.716-29.341a4.28,4.28,0,0,1,2.493-2.047c5.74-2.027,11.561-3.826,17.29-5.88a13.807,13.807,0,0,0,4.654-2.738q26.171-24.318,52.221-48.766c.778-.727,1.538-1.475,2.334-2.182,2.99-2.654,6.12-2.818,8.535-.467,2.48,2.416,2.454,5.784-.208,8.812-5.688,6.472-11.429,12.9-17.153,19.337q-16.4,18.453-32.772,36.931a12.626,12.626,0,0,0-2.379,4.2c-1.865,5.49-3.8,10.977-5.214,16.589-.837,3.327-2.726,4.6-5.783,4.944C114.147,564.58,112.718,564.819,111.285,565.023Zm-2.023-2.449c1.7,0,2.959.085,4.2-.017,3.1-.253,5.233-1.272,6.059-4.893,1.2-5.256,3.134-10.348,4.859-15.476.548-1.63.5-2.8-.9-4.061-2.582-2.334-4.866-5-7.481-7.292a4.266,4.266,0,0,0-3.417-.823c-5.007,1.452-9.942,3.159-14.887,4.823-4.64,1.56-5.347,2.733-4.892,8.032l9.814-3.473.341,1c-2.916,1.072-5.883,2.031-8.715,3.293-.746.333-1.673,1.765-1.494,2.41.824,2.984,2.009,5.868,3.21,9.191l4.43-3.672.921.982-4.632,2.662.474,1.429c2.851,1.717,5.668,3.5,8.57,5.123,1.413.792,2.492.4,3.088-1.311.646-1.852,1.541-3.617,2.327-5.419l.877.356Zm35.966-45.745c10.855-12.234,21.583-24.31,32.287-36.406,1.512-1.709,1.544-3.6-.1-5.183-1.731-1.66-3.5-1.131-5.127.393q-9.629,9.042-19.28,18.062c-5.361,5.019-10.724,10.035-16.236,15.192Zm-28.336,10.645,9.951,10.018,17.586-19.8-8.521-8.01Z" transform="translate(-9.303 -16.101)"/>
  </g>
</svg>
