<svg xmlns="http://www.w3.org/2000/svg" width="121.793" height="123" viewBox="0 0 121.793 123">
  <g id="_1160439" data-name="1160439" transform="translate(1 1)" opacity="0.1">
    <path id="Path_23" data-name="Path 23" d="M2.33,111.8A9.824,9.824,0,0,1,15.1,110.725l35.828,24.324a12.3,12.3,0,0,0,3.219,1.386l.327.061c-.357-1.116-.8-2.424-1.245-3.7-1.627-4.748-2.326-6.926-2.348-8.4a16.093,16.093,0,0,1,2.406-10.41l.02-.029a11.686,11.686,0,0,1,6.235-4.21,8.293,8.293,0,0,1,6.293.631,6.945,6.945,0,0,1,3.2,4.777,61.568,61.568,0,0,0,6.2,15.683c.52.936,1.031,2.015,1.526,3.06a37.433,37.433,0,0,0,1.9,3.678l.034.054a23.61,23.61,0,0,1,3.258,10.445c.012.117,1.233,11.8,7.592,21.629a11.793,11.793,0,0,1-2,15.1L69.232,201.95l-.171.15a9.073,9.073,0,0,1-5.773,2.039,8.851,8.851,0,0,1-5.013-1.52l-2.03-1.375a35.162,35.162,0,0,0-9.806-4.607c-9.735-2.781-19.122-8.075-25.327-12.06a7.131,7.131,0,0,1-3.574-5.077l-.028-.174c-2.186-16.547,3.186-30.767,5.673-36.255L2.908,124.1a8.563,8.563,0,0,1-.7-12.169Zm0,0" transform="translate(28.366 -83.139)" fill="none" stroke="#000" stroke-width="2"/>
    <path id="Path_24" data-name="Path 24" d="M275.673,56.893a22.781,22.781,0,0,1,30.676,0,3.388,3.388,0,0,1,0,5.016,3.975,3.975,0,0,1-5.358,0,14.823,14.823,0,0,0-19.96,0,12.636,12.636,0,0,0,0,18.683,3.387,3.387,0,0,1,0,5.016,3.972,3.972,0,0,1-5.358,0,19.419,19.419,0,0,1,0-28.715Zm0,0" transform="translate(-255.675 -38.914)" fill="none" stroke="#000" stroke-width="2"/>
    <path id="Path_25" data-name="Path 25" d="M242.952,9.627a36.834,36.834,0,0,1,49.659,0,3.39,3.39,0,0,1,0,5.016,3.976,3.976,0,0,1-5.359,0,28.883,28.883,0,0,0-38.942,0,24.651,24.651,0,0,0,0,36.45,3.388,3.388,0,0,1,0,5.016,3.975,3.975,0,0,1-5.358,0,31.437,31.437,0,0,1,0-46.483Zm0,0" transform="translate(-232.684)" fill="none" stroke="#000" stroke-width="2"/>
  </g>
</svg>
