<svg xmlns="http://www.w3.org/2000/svg" width="132.833" height="117.813" viewBox="0 0 132.833 117.813">
  <g id="_1253397" data-name="1253397" transform="translate(0 1.957)" opacity="0.1">
    <path id="Path_26" data-name="Path 26" d="M156.116,106.341a2.155,2.155,0,0,0,1.722-.678,2.418,2.418,0,0,0,.064-3.419l-1.675-1.74-3.482,3.353,1.675,1.744A2.4,2.4,0,0,0,156.116,106.341Zm0,0" transform="translate(-115.772 -77.659)"/>
    <path id="Path_27" data-name="Path 27" d="M206.342,156.027a2.418,2.418,0,0,0,.068-3.419l-1.678-1.74-3.482,3.353,1.675,1.744a2.418,2.418,0,0,0,3.417.062Zm0,0" transform="translate(-152.534 -115.831)"/>
    <path id="Path_28" data-name="Path 28" d="M127.451,128.223l-3.482,3.354,1.676,1.74a2.4,2.4,0,0,0,1.693.743,2.2,2.2,0,0,0,1.722-.677,2.418,2.418,0,0,0,.064-3.419Zm0,0" transform="translate(-93.961 -98.668)"/>
    <path id="Path_29" data-name="Path 29" d="M281.9,450.022l11.512-11.089H271.219Zm0,0" transform="translate(-205.566 -334.167)"/>
    <path id="Path_30" data-name="Path 30" d="M43.422-1.957,8.656.286l3.4,3.526a6.977,6.977,0,0,1,3.121-.665,7.254,7.254,0,1,1-.132,14.507H14.9A7.213,7.213,0,0,1,8.569,7.17l-3.6-3.746L0,36.608l2.528,2.628,41.8-40.257Zm0,0" transform="translate(0 0)"/>
    <path id="Path_31" data-name="Path 31" d="M56.232,43.239A2.417,2.417,0,0,0,54.6,39.074H54.55a2.387,2.387,0,0,0-1.673.677,2.418,2.418,0,0,0,1.633,4.159,2.274,2.274,0,0,0,1.721-.67Zm0,0" transform="translate(-39.517 -31.099)"/>
    <path id="Path_32" data-name="Path 32" d="M246.341,233.427l2.393-5.016-5.1,2.2Zm0,0" transform="translate(-184.658 -174.604)"/>
    <path id="Path_33" data-name="Path 33" d="M338.781,333.585a7.253,7.253,0,1,0,10.447-10.065Zm0,0" transform="translate(-256.774 -246.691)"/>
    <path id="Path_34" data-name="Path 34" d="M119.857,85.956a18.025,18.025,0,0,1,3.327-10.433L66.135,16.289,24.351,56.547l55.1,57.214h31.795v.076l14.809-14.266a18.085,18.085,0,0,1-6.2-13.615Zm-68.111-31.9a7.2,7.2,0,0,1-5.078-2.219l-3.354-3.482a2.416,2.416,0,0,1,.063-3.419l6.966-6.71,6.965-6.71a2.418,2.418,0,0,1,3.416.063l3.357,3.483A7.232,7.232,0,0,1,59.1,47.323a7.2,7.2,0,0,1-7.2,6.734Zm11.748,14.2a2.418,2.418,0,0,1-2.277-3.228l3.112-8.782-.641-.665-5.225,5.032a2.418,2.418,0,1,1-3.351-3.484l6.959-6.709L69.034,43.7a2.5,2.5,0,0,1,1.721-.674,2.412,2.412,0,0,1,1.693.74L75.8,47.253a7.207,7.207,0,0,1-7.392,11.912l-2.646,7.472a2.419,2.419,0,0,1-2.268,1.613Zm15.1,15.67a2.375,2.375,0,0,1-1.04-.242,2.416,2.416,0,0,1-1.14-3.222l1.5-3.143-5.222-5.426-3.2,1.384a2.418,2.418,0,0,1-1.918-4.439l18.965-8.193A2.418,2.418,0,0,1,89.677,63.9l-8.9,18.645a2.417,2.417,0,0,1-2.185,1.379ZM92.01,97.851a2.416,2.416,0,0,1-2.342-3L93.162,80.9l-7.86,7.57a2.418,2.418,0,0,1-3.355-3.482L95.879,71.567A2.418,2.418,0,0,1,99.9,73.9L96.4,87.844l7.86-7.571a2.419,2.419,0,1,1,3.352,3.485L93.686,97.177A2.411,2.411,0,0,1,92.01,97.851Zm22.061,6.545a12.089,12.089,0,0,1-17.092-.319L95.3,102.334a2.415,2.415,0,0,1,.065-3.415L109.3,85.5a2.684,2.684,0,0,1,1.723-.677,2.418,2.418,0,0,1,1.692.741l1.676,1.742a12.09,12.09,0,0,1-.321,17.091Zm0,0" transform="translate(-18.456 -13.83)"/>
    <path id="Path_35" data-name="Path 35" d="M452.174,249.152a13.3,13.3,0,1,0,13.3,13.3A13.3,13.3,0,0,0,452.174,249.152Zm5.837,15.716,2.711,2.713L457.3,271l-2.711-2.713v3.834h-4.836v-3.834L447.045,271l-3.419-3.419,2.711-2.713H442.5v-4.836h3.834l-2.711-2.711,3.419-3.411,2.711,2.7v-3.835h4.836v3.835l2.711-2.7,3.419,3.419-2.711,2.709h3.834v4.836Zm0,0" transform="translate(-332.639 -190.325)"/>
  </g>
</svg>
