<svg xmlns="http://www.w3.org/2000/svg" width="131.994" height="131.956" viewBox="0 0 131.994 131.956">
  <g id="_818534" data-name="818534" transform="translate(0 -0.069)" opacity="0.1">
    <g id="Group_15" data-name="Group 15" transform="translate(0 0.069)">
      <g id="Group_8" data-name="Group 8" transform="translate(0 14.294)">
        <g id="Group_7" data-name="Group 7" transform="translate(0)">
          <path id="Path_36" data-name="Path 36" d="M103.417,79.021a47.216,47.216,0,0,0-37.4,0,46.811,46.811,0,0,0-10.428-3.129l10.725-8.937a2.2,2.2,0,0,0,.633-2.507l-4.4-11A2.2,2.2,0,0,0,60.5,52.069H31.915a2.2,2.2,0,0,0-2.043,1.383l-4.4,11a2.2,2.2,0,0,0,.633,2.507l11.162,9.3a47.267,47.267,0,1,0,28.718,89.6,47.28,47.28,0,1,0,37.429-86.837ZM60.107,59.2l1.539,3.864H57.789Zm-3.488-2.733-2.714,4.523-2.714-4.523Zm-9.568,1.645,2.971,4.952H43.089Zm-4.319-1.645-3.958,4.952L35.8,56.467ZM32.311,59.2l2.318,3.864H30.765Zm1.28,8.262H58.827l-7.917,6.6h-9.4Zm13.718,97.858a42.882,42.882,0,1,1,13.478-83.6,47.7,47.7,0,0,0-4.8,3.239A38.567,38.567,0,1,0,70.282,91.6a33.793,33.793,0,0,1,4.776-1.832,42.869,42.869,0,0,1-27.75,75.558Zm4.378-76.673a47.183,47.183,0,0,0-.9,66.721q.419.43.848.85a34.072,34.072,0,1,1-4.324-67.866A34.652,34.652,0,0,1,51.687,88.648ZM66,150.908A34.022,34.022,0,0,1,66,93.97a34.024,34.024,0,0,1,0,56.938ZM80.365,88.659h0a34.07,34.07,0,1,1-.075,67.582,47.183,47.183,0,0,0,.93-66.72Q80.8,89.084,80.365,88.659Zm37,61.56a42.952,42.952,0,0,1-46.147,12.942,47.5,47.5,0,0,0,4.8-3.246,38.585,38.585,0,1,0-14.294-6.639,33.625,33.625,0,0,1-4.785,1.838,42.864,42.864,0,1,1,60.421-4.9Z" transform="translate(0 -52.069)"/>
        </g>
      </g>
      <g id="Group_10" data-name="Group 10" transform="translate(71.042 7.242)">
        <g id="Group_9" data-name="Group 9" transform="translate(0 0)">
          <rect id="Rectangle_29" data-name="Rectangle 29" width="6.219" height="4.398" transform="translate(0 4.397) rotate(-45)"/>
        </g>
      </g>
      <g id="Group_12" data-name="Group 12" transform="translate(13.869 7.241)">
        <g id="Group_11" data-name="Group 11" transform="translate(0 0)">
          <rect id="Rectangle_30" data-name="Rectangle 30" width="4.398" height="6.219" transform="translate(0 3.11) rotate(-45)"/>
        </g>
      </g>
      <g id="Group_14" data-name="Group 14" transform="translate(44.01)">
        <g id="Group_13" data-name="Group 13" transform="translate(0 0)">
          <rect id="Rectangle_31" data-name="Rectangle 31" width="4.398" height="6.597"/>
        </g>
      </g>
    </g>
  </g>
</svg>
