<svg xmlns="http://www.w3.org/2000/svg" width="130" height="130" viewBox="0 0 130 130">
  <g id="_2749064" data-name="2749064" transform="translate(0 0)" opacity="0.1">
    <path id="Path_37" data-name="Path 37" d="M40.5,52.725a17.581,17.581,0,0,1-12.458-5.189L10.383,29.818A17.524,17.524,0,0,1,10.4,4.945c6.424-6.554,18.189-6.635,24.852.011l3.033,3.039a4.064,4.064,0,0,1-5.747,5.747l-3.033-3.033a9.7,9.7,0,0,0-13.347-.032,9.4,9.4,0,0,0-.043,13.385L33.8,41.795a9.44,9.44,0,0,0,12.7.645,4.063,4.063,0,0,1,5.146,6.289A17.556,17.556,0,0,1,40.5,52.725Z" transform="translate(23.033 0)"/>
    <path id="Path_38" data-name="Path 38" d="M40.25,56.545A17.4,17.4,0,0,1,27.8,51.362l-2.909-2.914a4.066,4.066,0,1,1,5.758-5.742l2.92,2.925A9.455,9.455,0,1,0,46.951,32.273L29.271,14.539a9.739,9.739,0,0,0-12.68-.655,4.063,4.063,0,0,1-5.173-6.267c6.663-5.509,17.415-5.01,23.6,1.181L52.682,26.515A17.6,17.6,0,0,1,40.25,56.545Z" transform="translate(43.898 16.769)"/>
    <path id="Path_39" data-name="Path 39" d="M120.521,4H90.3l10.833,10.833h18.038v65H10.833v-65H21.721A27.519,27.519,0,0,1,17.767,4H9.479A9.525,9.525,0,0,0,0,13.479V81.188a9.525,9.525,0,0,0,9.479,9.479H54.167V101.5H43.333a5.417,5.417,0,1,0,0,10.833H86.667a5.417,5.417,0,1,0,0-10.833H75.833V90.667h44.688A9.525,9.525,0,0,0,130,81.188V13.479A9.525,9.525,0,0,0,120.521,4Z" transform="translate(0 17.666)"/>
  </g>
</svg>
