<svg xmlns="http://www.w3.org/2000/svg" width="142" height="142" viewBox="0 0 142 142">
  <g id="_2849230" data-name="2849230" transform="translate(-1 -1)" opacity="0.1">
    <g id="Group_16" data-name="Group 16" transform="translate(1 37.645)">
      <path id="Path_40" data-name="Path 40" d="M73.947,48.588l-.456-.909A11.288,11.288,0,0,1,62.71,51.087a25.546,25.546,0,0,1,.128,2.558,25.192,25.192,0,1,1-8.117-18.524l.016.032a11.4,11.4,0,0,1,9.193-6.58l-.467-.934-.277-.27a36.645,36.645,0,1,0,11.1,26.277,37.27,37.27,0,0,0-.3-4.67Z" transform="translate(-1 -17)"/>
    </g>
    <g id="Group_17" data-name="Group 17" transform="translate(1 1)">
      <path id="Path_41" data-name="Path 41" d="M58.452,7A11.452,11.452,0,1,0,69.9,18.452,11.465,11.465,0,0,0,58.452,7Zm0,18.323a6.871,6.871,0,1,1,6.871-6.871A6.879,6.879,0,0,1,58.452,25.323Z" transform="translate(58.355 6.742)"/>
      <path id="Path_42" data-name="Path 42" d="M55,45h4.581v4.581H55Z" transform="translate(68.677 55.774)"/>
      <path id="Path_43" data-name="Path 43" d="M51,45h4.581v4.581H51Z" transform="translate(63.516 55.774)"/>
      <path id="Path_44" data-name="Path 44" d="M47,45h4.581v4.581H47Z" transform="translate(58.355 55.774)"/>
      <path id="Path_45" data-name="Path 45" d="M29,15h4.581v4.581H29Z" transform="translate(35.129 17.065)"/>
      <path id="Path_46" data-name="Path 46" d="M33,15h4.581v4.581H33Z" transform="translate(40.29 17.065)"/>
      <path id="Path_47" data-name="Path 47" d="M37,15h4.581v4.581H37Z" transform="translate(45.452 17.065)"/>
      <path id="Path_48" data-name="Path 48" d="M138.216,33.065H143V19.323h-4.784a1.531,1.531,0,0,1-1.37-1.038,1.5,1.5,0,0,1,.252-1.663l3.392-3.392-9.72-9.722L127.38,6.9a1.529,1.529,0,0,1-1.718.231,1.487,1.487,0,0,1-.985-1.349V1H110.935V5.782a1.512,1.512,0,0,1-1.038,1.37,1.5,1.5,0,0,1-1.665-.252l-3.39-3.392-9.72,9.722,3.392,3.39a1.528,1.528,0,0,1,.229,1.718,1.5,1.5,0,0,1-1.347.985H92.613V23.9H60.548V1H42.226V14.742H33.065V5.581H14.742V23.9H1V74.29a36.406,36.406,0,0,1,4.581-17.7v-28.1h9.161V45.73A36.884,36.884,0,0,1,19.323,42.6V10.161h9.161V38.852a36.457,36.457,0,0,1,4.581-.889V19.323h9.161V37.964a36.163,36.163,0,0,1,4.581.875V5.581h9.161V42.59a36.509,36.509,0,0,1,4.581,3.094v-17.2H92.613v4.581H97.4a1.531,1.531,0,0,1,1.37,1.038,1.5,1.5,0,0,1-.25,1.663l-3.392,3.392,9.72,9.722,3.39-3.392a1.529,1.529,0,0,1,1.718-.231,1.484,1.484,0,0,1,.985,1.347v1.8L96.58,69.939a6.631,6.631,0,0,0-6.269,1.569L78.136,64.95A13.722,13.722,0,0,0,54.149,52.322,27.479,27.479,0,1,0,65.129,74.29a13.716,13.716,0,0,0,10.829-5.309l2.913,1.569V92.613H69.332a36.884,36.884,0,0,1-3.126,4.581h67.633v13.742H51.387v-2.7a36.516,36.516,0,0,1-4.581,1.491v3.5a2.291,2.291,0,0,1-2.29,2.29H30.774a2.291,2.291,0,0,1-2.29-2.29v-3.5a36.513,36.513,0,0,1-4.581-1.491v4.988a6.862,6.862,0,0,0,4.581,6.45v16.454A6.879,6.879,0,0,0,35.355,143h4.581a6.879,6.879,0,0,0,6.871-6.871V119.675a6.864,6.864,0,0,0,4.159-4.159H68.823l-3.053,9.161h-9.8a4.585,4.585,0,0,0-4.581,4.581v9.161A4.585,4.585,0,0,0,55.968,143h59.548a4.585,4.585,0,0,0,4.581-4.581v-9.161a4.585,4.585,0,0,0-4.581-4.581h-9.8l-3.053-9.161h31.178a4.585,4.585,0,0,0,4.581-4.581V41.23l2.07-2.07-3.392-3.39a1.528,1.528,0,0,1-.229-1.718,1.5,1.5,0,0,1,1.347-.987ZM60.548,74.29a22.948,22.948,0,1,1-8.543-17.819,13.531,13.531,0,0,0-.22,7.3L40.277,68.707a9.848,9.848,0,1,0,1.809,4.207l11.5-4.929a13.78,13.78,0,0,0,6.917,5.488c.009.275.041.541.041.818Zm-22.9,0a4.581,4.581,0,1,1-4.581-4.581A4.585,4.585,0,0,1,37.645,74.29ZM65.129,69.71a9.161,9.161,0,1,1,9.161-9.161A9.171,9.171,0,0,1,65.129,69.71Zm-22.9,66.419a2.291,2.291,0,0,1-2.29,2.29H35.355a2.291,2.291,0,0,1-2.29-2.29V120.1h9.161Zm73.295,2.29H55.968v-9.161h59.548Zm-14.633-13.742H70.6l3.053-9.161H97.835ZM120.1,92.613h-9.161V56.662l3.516-5.275H120.1Zm-22.9-9.583a6.8,6.8,0,0,0,3.193-10.547l5.969-8.951v29.08H97.194ZM94.9,74.29a2.29,2.29,0,1,1-2.29,2.29A2.291,2.291,0,0,1,94.9,74.29ZM83.452,73.017l4.686,2.524a6.778,6.778,0,0,0-.105,1.04,6.862,6.862,0,0,0,4.581,6.45v9.583H83.452Zm50.387,19.6h-9.161V46.6a1.512,1.512,0,0,1,1.038-1.37,1.491,1.491,0,0,1,1.665.252l3.39,3.392,3.069-3.069Zm-1.218-60.27a6.071,6.071,0,0,0,1.239,6.663l.153.151L130.77,42.4l-.151-.153A6.236,6.236,0,0,0,120.1,46.6v.2h-4.581v-.2a6.234,6.234,0,0,0-10.522-4.356l-.151.151L101.6,39.157l.153-.153A6.234,6.234,0,0,0,97.4,28.484h-.2V23.9h.2a6.072,6.072,0,0,0,5.6-3.859,6.071,6.071,0,0,0-1.239-6.663l-.153-.151,3.243-3.243.151.153a6.083,6.083,0,0,0,6.706,1.221,6.057,6.057,0,0,0,3.816-5.579v-.2H120.1v.2a6.077,6.077,0,0,0,3.857,5.6,6.074,6.074,0,0,0,6.665-1.241l.151-.151,3.243,3.243-.153.153a6.084,6.084,0,0,0-1.221,6.7,6.058,6.058,0,0,0,5.577,3.816h.2v4.581h-.2a6.076,6.076,0,0,0-5.6,3.859Z" transform="translate(-1 -1)"/>
    </g>
  </g>
</svg>
