<svg xmlns="http://www.w3.org/2000/svg" width="138" height="138" viewBox="0 0 138 138">
  <g id="_830894" data-name="830894" opacity="0.1">
    <g id="Group_19" data-name="Group 19" transform="translate(132.61 43.125)">
      <g id="Group_18" data-name="Group 18">
        <path id="Path_49" data-name="Path 49" d="M494.7,160a2.7,2.7,0,1,0,2.7,2.7A2.7,2.7,0,0,0,494.7,160Z" transform="translate(-492 -160)"/>
      </g>
    </g>
    <g id="Group_21" data-name="Group 21" transform="translate(0 12.398)">
      <g id="Group_20" data-name="Group 20">
        <path id="Path_50" data-name="Path 50" d="M135.305,94.516H122.368V83.077A19.572,19.572,0,0,0,110.3,65.183a10.781,10.781,0,1,0-16.287,0A19.572,19.572,0,0,0,81.938,83.077V94.516H54.715V75.649c0-5.517-4.736-10.158-11.7-12.264a10.781,10.781,0,1,0-17.026,0c-6.966,2.105-11.7,6.747-11.7,12.264V94.516H2.7a2.7,2.7,0,0,0,0,5.391H41.777v18.867a2.7,2.7,0,0,0,5.391,0V99.906H90.563v18.867a2.7,2.7,0,0,0,5.391,0V99.906h39.352a2.7,2.7,0,0,0,0-5.391ZM34.5,51.391a5.391,5.391,0,1,1-5.391,5.391A5.4,5.4,0,0,1,34.5,51.391Zm0,16.172c6.693,0,11.831,2.5,13.869,5.391H20.631C22.669,70.064,27.807,67.563,34.5,67.563ZM49.324,94.516H19.676V78.344H49.324Zm52.828-41.777a5.391,5.391,0,1,1-5.391,5.391A5.4,5.4,0,0,1,102.153,52.738Zm14.824,41.777H87.328V83.077c0-7.811,6.65-14.167,14.824-14.167s14.824,6.355,14.824,14.167Z" transform="translate(0 -46)"/>
      </g>
    </g>
    <g id="Group_23" data-name="Group 23" transform="translate(0 43.125)">
      <g id="Group_22" data-name="Group 22">
        <path id="Path_51" data-name="Path 51" d="M2.7,160a2.7,2.7,0,1,0,2.7,2.7A2.7,2.7,0,0,0,2.7,160Z" transform="translate(0 -160)"/>
      </g>
    </g>
    <g id="Group_25" data-name="Group 25">
      <g id="Group_24" data-name="Group 24">
        <path id="Path_52" data-name="Path 52" d="M135.305,0H2.7A2.7,2.7,0,0,0,0,2.7V35.039a2.7,2.7,0,1,0,5.391,0V5.391H66.3V35.039a2.7,2.7,0,1,0,5.391,0V5.391H132.61V35.039a2.7,2.7,0,1,0,5.391,0V2.7A2.7,2.7,0,0,0,135.305,0Z"/>
      </g>
    </g>
    <g id="Group_27" data-name="Group 27" transform="translate(66.305 43.125)">
      <g id="Group_26" data-name="Group 26">
        <path id="Path_53" data-name="Path 53" d="M248.7,160a2.7,2.7,0,1,0,2.7,2.7A2.7,2.7,0,0,0,248.7,160Z" transform="translate(-246 -160)"/>
      </g>
    </g>
    <g id="Group_29" data-name="Group 29" transform="translate(41.777 93.258)">
      <g id="Group_28" data-name="Group 28">
        <path id="Path_54" data-name="Path 54" d="M157.7,346a2.7,2.7,0,1,0,2.7,2.7A2.7,2.7,0,0,0,157.7,346Z" transform="translate(-155 -346)"/>
      </g>
    </g>
    <g id="Group_31" data-name="Group 31" transform="translate(90.563 93.258)">
      <g id="Group_30" data-name="Group 30">
        <path id="Path_55" data-name="Path 55" d="M338.7,346a2.7,2.7,0,1,0,2.7,2.7A2.7,2.7,0,0,0,338.7,346Z" transform="translate(-336 -346)"/>
      </g>
    </g>
    <g id="Group_33" data-name="Group 33" transform="translate(0 84.094)">
      <g id="Group_32" data-name="Group 32">
        <path id="Path_56" data-name="Path 56" d="M126.3,329.385a10.781,10.781,0,1,0-17.026,0c-6.966,2.105-11.7,6.747-11.7,12.264v18.867H89.215V341.648c0-5.517-4.736-10.158-11.7-12.264a10.781,10.781,0,1,0-17.026,0c-6.966,2.105-11.7,6.747-11.7,12.264v18.867H40.43V349.077a19.572,19.572,0,0,0-12.072-17.894,10.781,10.781,0,1,0-16.287,0A19.571,19.571,0,0,0,0,349.077v14.134a2.7,2.7,0,0,0,2.7,2.7h132.61a2.7,2.7,0,0,0,2.7-2.7V341.648C138,336.131,133.265,331.49,126.3,329.385ZM20.215,318.738a5.391,5.391,0,1,1-5.391,5.391A5.4,5.4,0,0,1,20.215,318.738Zm14.824,41.777H5.391V349.077c0-7.811,6.65-14.167,14.824-14.167s14.824,6.355,14.824,14.167ZM69,317.391a5.391,5.391,0,1,1-5.391,5.391A5.4,5.4,0,0,1,69,317.391Zm0,16.172c6.693,0,11.831,2.5,13.869,5.391H55.131C57.169,336.064,62.307,333.563,69,333.563Zm14.824,26.953H54.176V344.344H83.824Zm33.961-43.125a5.391,5.391,0,1,1-5.391,5.391A5.4,5.4,0,0,1,117.786,317.391Zm0,16.172c6.693,0,11.831,2.5,13.869,5.391H103.916C105.954,336.064,111.092,333.563,117.786,333.563Zm14.824,26.953H102.961V344.344H132.61Z" transform="translate(0 -312)"/>
      </g>
    </g>
    <g id="Group_35" data-name="Group 35" transform="translate(30.978 47.877)">
      <g id="Group_34" data-name="Group 34" transform="translate(0 0)">
        <ellipse id="Ellipse_3" data-name="Ellipse 3" cx="2" cy="4" rx="2" ry="4" transform="translate(0.022 0.123)"/>
      </g>
    </g>
    <g id="Group_37" data-name="Group 37" transform="translate(115.471 119.696)">
      <g id="Group_36" data-name="Group 36" transform="translate(0 0)">
        <ellipse id="Ellipse_4" data-name="Ellipse 4" cx="2.5" cy="4" rx="2.5" ry="4" transform="translate(-0.471 0.304)"/>
      </g>
    </g>
    <g id="Group_39" data-name="Group 39" transform="translate(64.776 119.696)">
      <g id="Group_38" data-name="Group 38" transform="translate(0 0)">
        <circle id="Ellipse_5" data-name="Ellipse 5" cx="4" cy="4" r="4" transform="translate(0.225 0.304)"/>
      </g>
    </g>
  </g>
</svg>
