<svg xmlns="http://www.w3.org/2000/svg" width="160.189" height="128.151" viewBox="0 0 160.189 128.151">
  <g id="Page-1" opacity="0.1">
    <g id="_052---Block-Webpage" data-name="052---Block-Webpage">
      <path id="Shape" d="M28.67,9.34H44.689a2.67,2.67,0,1,0,0-5.34H28.67a2.67,2.67,0,0,0,0,5.34Z" transform="translate(43.415 6.679)"/>
      <path id="Shape-2" data-name="Shape" d="M45.67,9.34H75.038a2.67,2.67,0,1,0,0-5.34H45.67a2.67,2.67,0,1,0,0,5.34Z" transform="translate(71.802 6.679)"/>
      <path id="Shape-3" data-name="Shape" d="M146.84,0H13.349A13.365,13.365,0,0,0,0,13.349V114.8a13.365,13.365,0,0,0,13.349,13.349H146.84A13.365,13.365,0,0,0,160.189,114.8V13.349A13.365,13.365,0,0,0,146.84,0ZM13.349,5.34H146.84a8.009,8.009,0,0,1,8.009,8.009v8.009H5.34V13.349A8.009,8.009,0,0,1,13.349,5.34ZM146.84,122.812H13.349A8.009,8.009,0,0,1,5.34,114.8V26.7H154.85v88.1A8.009,8.009,0,0,1,146.84,122.812Z"/>
      <circle id="Oval" cx="4" cy="4" r="4" transform="translate(8.095 7.076)"/>
      <ellipse id="Oval-2" data-name="Oval" cx="1.5" cy="4" rx="1.5" ry="4" transform="translate(20.095 7.076)"/>
      <circle id="Oval-3" data-name="Oval" cx="4" cy="4" r="4" transform="translate(31.095 7.076)"/>
      <path id="Shape-4" data-name="Shape" d="M83.746,38H19.67a2.67,2.67,0,0,0,0,5.34H83.746a2.67,2.67,0,0,0,0-5.34Z" transform="translate(28.387 63.453)"/>
      <path id="Shape-5" data-name="Shape" d="M44.689,42H28.67a2.67,2.67,0,0,0,0,5.34H44.689a2.67,2.67,0,0,0,0-5.34Z" transform="translate(43.415 70.132)"/>
      <path id="Shape-6" data-name="Shape" d="M50.041,76.052a32.022,32.022,0,1,0-22.653-9.368,32.022,32.022,0,0,0,22.653,9.368Zm-18.878-50.9A26.6,26.6,0,1,1,23.3,44.03a26.7,26.7,0,0,1,7.858-18.878Z" transform="translate(30.053 20.046)"/>
      <path id="Shape-7" data-name="Shape" d="M26.549,48.9a2.646,2.646,0,0,0,2.272-.753L54.158,22.816a2.67,2.67,0,0,0-.617-4.237A21.359,21.359,0,0,0,24.579,47.536a2.67,2.67,0,0,0,1.97,1.367Zm5.5-22.859A16.152,16.152,0,0,1,47.534,21.9L27.916,41.516a16.144,16.144,0,0,1,4.125-15.472Z" transform="translate(36.725 26.704)"/>
      <path id="Shape-8" data-name="Shape" d="M25.7,48.06a2.67,2.67,0,0,0,1.37,1.962A21.365,21.365,0,0,0,56.022,21.06a2.67,2.67,0,0,0-4.234-.614L26.451,45.78A2.67,2.67,0,0,0,25.7,48.06ZM52.717,27.1A16.019,16.019,0,0,1,33.086,46.725Z" transform="translate(42.863 32.835)"/>
    </g>
  </g>
</svg>
